<mxfile host="Electron" agent="Mozilla/5.0 (Windows NT 10.0; Win64; x64) AppleWebKit/537.36 (KHTML, like Gecko) draw.io/26.0.9 Chrome/128.0.6613.186 Electron/32.2.5 Safari/537.36" version="26.0.9">
  <diagram name="Page-1" id="lT0Fq2vNyoHboWj1Rssd">
    <mxGraphModel dx="1334" dy="864" grid="1" gridSize="10" guides="1" tooltips="1" connect="1" arrows="1" fold="1" page="1" pageScale="1" pageWidth="1100" pageHeight="850" math="0" shadow="0">
      <root>
        <mxCell id="0" />
        <mxCell id="1" parent="0" />
        <mxCell id="nTpmGstvY4aD5aD-hLBk-1" value="" style="rounded=0;whiteSpace=wrap;html=1;fillColor=#d5e8d4;strokeColor=#82b366;" vertex="1" parent="1">
          <mxGeometry x="90" y="40" width="890" height="1380" as="geometry" />
        </mxCell>
        <mxCell id="nTpmGstvY4aD5aD-hLBk-2" value="" style="rounded=1;whiteSpace=wrap;html=1;fillColor=#dae8fc;strokeColor=#6c8ebf;sketch=1;curveFitting=1;jiggle=2;" vertex="1" parent="1">
          <mxGeometry x="100" y="50" width="870" height="150" as="geometry" />
        </mxCell>
        <mxCell id="nTpmGstvY4aD5aD-hLBk-3" value="logo-20%" style="whiteSpace=wrap;html=1;aspect=fixed;fillColor=#dae8fc;strokeColor=#6c8ebf;shadow=1;rounded=1;glass=0;" vertex="1" parent="1">
          <mxGeometry x="130" y="70" width="100" height="100" as="geometry" />
        </mxCell>
        <mxCell id="nTpmGstvY4aD5aD-hLBk-4" value="photo 20%" style="whiteSpace=wrap;html=1;aspect=fixed;fillColor=#dae8fc;strokeColor=#6c8ebf;shadow=1;rounded=1;" vertex="1" parent="1">
          <mxGeometry x="850" y="70" width="100" height="100" as="geometry" />
        </mxCell>
        <mxCell id="nTpmGstvY4aD5aD-hLBk-5" value="" style="rounded=1;whiteSpace=wrap;html=1;fillColor=#ffe6cc;strokeColor=#d79b00;" vertex="1" parent="1">
          <mxGeometry x="250" y="70" width="570" height="100" as="geometry" />
        </mxCell>
        <mxCell id="nTpmGstvY4aD5aD-hLBk-6" value="University Name" style="rounded=1;whiteSpace=wrap;html=1;fillColor=#dae8fc;strokeColor=#6c8ebf;" vertex="1" parent="1">
          <mxGeometry x="265" y="80" width="540" height="40" as="geometry" />
        </mxCell>
        <mxCell id="nTpmGstvY4aD5aD-hLBk-7" value="" style="rounded=1;whiteSpace=wrap;html=1;fillColor=#f5f5f5;fontColor=#333333;strokeColor=#666666;" vertex="1" parent="1">
          <mxGeometry x="265" y="120" width="540" height="40" as="geometry" />
        </mxCell>
        <mxCell id="nTpmGstvY4aD5aD-hLBk-8" value="folio no" style="rounded=1;whiteSpace=wrap;html=1;fillColor=#f8cecc;strokeColor=#b85450;" vertex="1" parent="1">
          <mxGeometry x="640" y="125" width="150" height="30" as="geometry" />
        </mxCell>
        <mxCell id="nTpmGstvY4aD5aD-hLBk-9" value="no" style="rounded=1;whiteSpace=wrap;html=1;fillColor=#f8cecc;strokeColor=#b85450;" vertex="1" parent="1">
          <mxGeometry x="290" y="125" width="150" height="30" as="geometry" />
        </mxCell>
        <mxCell id="nTpmGstvY4aD5aD-hLBk-10" value="" style="shape=table;startSize=0;container=1;collapsible=0;childLayout=tableLayout;" vertex="1" parent="1">
          <mxGeometry x="100" y="220" width="860" height="160" as="geometry" />
        </mxCell>
        <mxCell id="nTpmGstvY4aD5aD-hLBk-11" value="" style="shape=tableRow;horizontal=0;startSize=0;swimlaneHead=0;swimlaneBody=0;strokeColor=inherit;top=0;left=0;bottom=0;right=0;collapsible=0;dropTarget=0;fillColor=none;points=[[0,0.5],[1,0.5]];portConstraint=eastwest;" vertex="1" parent="nTpmGstvY4aD5aD-hLBk-10">
          <mxGeometry width="860" height="40" as="geometry" />
        </mxCell>
        <mxCell id="nTpmGstvY4aD5aD-hLBk-12" value="ma" style="shape=partialRectangle;html=1;whiteSpace=wrap;connectable=0;strokeColor=inherit;overflow=hidden;fillColor=none;top=0;left=0;bottom=0;right=0;pointerEvents=1;rowspan=1;colspan=2;" vertex="1" parent="nTpmGstvY4aD5aD-hLBk-11">
          <mxGeometry width="133" height="40" as="geometry">
            <mxRectangle width="62" height="40" as="alternateBounds" />
          </mxGeometry>
        </mxCell>
        <mxCell id="nTpmGstvY4aD5aD-hLBk-13" value="" style="shape=partialRectangle;html=1;whiteSpace=wrap;connectable=0;strokeColor=inherit;overflow=hidden;fillColor=none;top=0;left=0;bottom=0;right=0;pointerEvents=1;" vertex="1" visible="0" parent="nTpmGstvY4aD5aD-hLBk-11">
          <mxGeometry x="62" width="71" height="40" as="geometry">
            <mxRectangle width="71" height="40" as="alternateBounds" />
          </mxGeometry>
        </mxCell>
        <mxCell id="nTpmGstvY4aD5aD-hLBk-14" value="make 14 *4" style="shape=partialRectangle;html=1;whiteSpace=wrap;connectable=0;strokeColor=inherit;overflow=hidden;fillColor=none;top=0;left=0;bottom=0;right=0;pointerEvents=1;rowspan=1;colspan=7;" vertex="1" parent="nTpmGstvY4aD5aD-hLBk-11">
          <mxGeometry x="133" width="463" height="40" as="geometry">
            <mxRectangle width="66" height="40" as="alternateBounds" />
          </mxGeometry>
        </mxCell>
        <mxCell id="nTpmGstvY4aD5aD-hLBk-15" value="" style="shape=partialRectangle;html=1;whiteSpace=wrap;connectable=0;strokeColor=inherit;overflow=hidden;fillColor=none;top=0;left=0;bottom=0;right=0;pointerEvents=1;" vertex="1" visible="0" parent="nTpmGstvY4aD5aD-hLBk-11">
          <mxGeometry x="199" width="65" height="40" as="geometry">
            <mxRectangle width="65" height="40" as="alternateBounds" />
          </mxGeometry>
        </mxCell>
        <mxCell id="nTpmGstvY4aD5aD-hLBk-16" value="" style="shape=partialRectangle;html=1;whiteSpace=wrap;connectable=0;strokeColor=inherit;overflow=hidden;fillColor=none;top=0;left=0;bottom=0;right=0;pointerEvents=1;" vertex="1" visible="0" parent="nTpmGstvY4aD5aD-hLBk-11">
          <mxGeometry x="264" width="67" height="40" as="geometry">
            <mxRectangle width="67" height="40" as="alternateBounds" />
          </mxGeometry>
        </mxCell>
        <mxCell id="nTpmGstvY4aD5aD-hLBk-17" value="" style="shape=partialRectangle;html=1;whiteSpace=wrap;connectable=0;strokeColor=inherit;overflow=hidden;fillColor=none;top=0;left=0;bottom=0;right=0;pointerEvents=1;" vertex="1" visible="0" parent="nTpmGstvY4aD5aD-hLBk-11">
          <mxGeometry x="331" width="66" height="40" as="geometry">
            <mxRectangle width="66" height="40" as="alternateBounds" />
          </mxGeometry>
        </mxCell>
        <mxCell id="nTpmGstvY4aD5aD-hLBk-18" value="" style="shape=partialRectangle;html=1;whiteSpace=wrap;connectable=0;strokeColor=inherit;overflow=hidden;fillColor=none;top=0;left=0;bottom=0;right=0;pointerEvents=1;" vertex="1" visible="0" parent="nTpmGstvY4aD5aD-hLBk-11">
          <mxGeometry x="397" width="66" height="40" as="geometry">
            <mxRectangle width="66" height="40" as="alternateBounds" />
          </mxGeometry>
        </mxCell>
        <mxCell id="nTpmGstvY4aD5aD-hLBk-19" value="" style="shape=partialRectangle;html=1;whiteSpace=wrap;connectable=0;strokeColor=inherit;overflow=hidden;fillColor=none;top=0;left=0;bottom=0;right=0;pointerEvents=1;" vertex="1" visible="0" parent="nTpmGstvY4aD5aD-hLBk-11">
          <mxGeometry x="463" width="66" height="40" as="geometry">
            <mxRectangle width="66" height="40" as="alternateBounds" />
          </mxGeometry>
        </mxCell>
        <mxCell id="nTpmGstvY4aD5aD-hLBk-20" value="" style="shape=partialRectangle;html=1;whiteSpace=wrap;connectable=0;strokeColor=inherit;overflow=hidden;fillColor=none;top=0;left=0;bottom=0;right=0;pointerEvents=1;" vertex="1" visible="0" parent="nTpmGstvY4aD5aD-hLBk-11">
          <mxGeometry x="529" width="67" height="40" as="geometry">
            <mxRectangle width="67" height="40" as="alternateBounds" />
          </mxGeometry>
        </mxCell>
        <mxCell id="nTpmGstvY4aD5aD-hLBk-21" value="" style="shape=partialRectangle;html=1;whiteSpace=wrap;connectable=0;strokeColor=inherit;overflow=hidden;fillColor=none;top=0;left=0;bottom=0;right=0;pointerEvents=1;rowspan=1;colspan=2;" vertex="1" parent="nTpmGstvY4aD5aD-hLBk-11">
          <mxGeometry x="596" width="131" height="40" as="geometry">
            <mxRectangle width="65" height="40" as="alternateBounds" />
          </mxGeometry>
        </mxCell>
        <mxCell id="nTpmGstvY4aD5aD-hLBk-22" value="" style="shape=partialRectangle;html=1;whiteSpace=wrap;connectable=0;strokeColor=inherit;overflow=hidden;fillColor=none;top=0;left=0;bottom=0;right=0;pointerEvents=1;" vertex="1" visible="0" parent="nTpmGstvY4aD5aD-hLBk-11">
          <mxGeometry x="661" width="66" height="40" as="geometry">
            <mxRectangle width="66" height="40" as="alternateBounds" />
          </mxGeometry>
        </mxCell>
        <mxCell id="nTpmGstvY4aD5aD-hLBk-23" value="" style="shape=partialRectangle;html=1;whiteSpace=wrap;connectable=0;strokeColor=#d79b00;overflow=hidden;fillColor=#ffe6cc;top=0;left=0;bottom=0;right=0;pointerEvents=1;rowspan=1;colspan=2;" vertex="1" parent="nTpmGstvY4aD5aD-hLBk-11">
          <mxGeometry x="727" width="133" height="40" as="geometry">
            <mxRectangle width="67" height="40" as="alternateBounds" />
          </mxGeometry>
        </mxCell>
        <mxCell id="nTpmGstvY4aD5aD-hLBk-24" value="" style="shape=partialRectangle;html=1;whiteSpace=wrap;connectable=0;strokeColor=inherit;overflow=hidden;fillColor=none;top=0;left=0;bottom=0;right=0;pointerEvents=1;" vertex="1" visible="0" parent="nTpmGstvY4aD5aD-hLBk-11">
          <mxGeometry x="794" width="66" height="40" as="geometry">
            <mxRectangle width="66" height="40" as="alternateBounds" />
          </mxGeometry>
        </mxCell>
        <mxCell id="nTpmGstvY4aD5aD-hLBk-25" value="" style="shape=tableRow;horizontal=0;startSize=0;swimlaneHead=0;swimlaneBody=0;strokeColor=inherit;top=0;left=0;bottom=0;right=0;collapsible=0;dropTarget=0;fillColor=none;points=[[0,0.5],[1,0.5]];portConstraint=eastwest;" vertex="1" parent="nTpmGstvY4aD5aD-hLBk-10">
          <mxGeometry y="40" width="860" height="40" as="geometry" />
        </mxCell>
        <mxCell id="nTpmGstvY4aD5aD-hLBk-26" value="" style="shape=partialRectangle;html=1;whiteSpace=wrap;connectable=0;strokeColor=inherit;overflow=hidden;fillColor=none;top=0;left=0;bottom=0;right=0;pointerEvents=1;rowspan=1;colspan=2;" vertex="1" parent="nTpmGstvY4aD5aD-hLBk-25">
          <mxGeometry width="133" height="40" as="geometry">
            <mxRectangle width="62" height="40" as="alternateBounds" />
          </mxGeometry>
        </mxCell>
        <mxCell id="nTpmGstvY4aD5aD-hLBk-27" value="" style="shape=partialRectangle;html=1;whiteSpace=wrap;connectable=0;strokeColor=inherit;overflow=hidden;fillColor=none;top=0;left=0;bottom=0;right=0;pointerEvents=1;" vertex="1" visible="0" parent="nTpmGstvY4aD5aD-hLBk-25">
          <mxGeometry x="62" width="71" height="40" as="geometry">
            <mxRectangle width="71" height="40" as="alternateBounds" />
          </mxGeometry>
        </mxCell>
        <mxCell id="nTpmGstvY4aD5aD-hLBk-28" value="" style="shape=partialRectangle;html=1;whiteSpace=wrap;connectable=0;strokeColor=#d79b00;overflow=hidden;fillColor=#ffe6cc;top=0;left=0;bottom=0;right=0;pointerEvents=1;" vertex="1" parent="nTpmGstvY4aD5aD-hLBk-25">
          <mxGeometry x="133" width="66" height="40" as="geometry">
            <mxRectangle width="66" height="40" as="alternateBounds" />
          </mxGeometry>
        </mxCell>
        <mxCell id="nTpmGstvY4aD5aD-hLBk-29" value="" style="shape=partialRectangle;html=1;whiteSpace=wrap;connectable=0;strokeColor=inherit;overflow=hidden;fillColor=none;top=0;left=0;bottom=0;right=0;pointerEvents=1;" vertex="1" parent="nTpmGstvY4aD5aD-hLBk-25">
          <mxGeometry x="199" width="65" height="40" as="geometry">
            <mxRectangle width="65" height="40" as="alternateBounds" />
          </mxGeometry>
        </mxCell>
        <mxCell id="nTpmGstvY4aD5aD-hLBk-30" value="" style="shape=partialRectangle;html=1;whiteSpace=wrap;connectable=0;strokeColor=#d79b00;overflow=hidden;fillColor=#ffe6cc;top=0;left=0;bottom=0;right=0;pointerEvents=1;" vertex="1" parent="nTpmGstvY4aD5aD-hLBk-25">
          <mxGeometry x="264" width="67" height="40" as="geometry">
            <mxRectangle width="67" height="40" as="alternateBounds" />
          </mxGeometry>
        </mxCell>
        <mxCell id="nTpmGstvY4aD5aD-hLBk-31" value="" style="shape=partialRectangle;html=1;whiteSpace=wrap;connectable=0;strokeColor=inherit;overflow=hidden;fillColor=none;top=0;left=0;bottom=0;right=0;pointerEvents=1;rowspan=1;colspan=3;" vertex="1" parent="nTpmGstvY4aD5aD-hLBk-25">
          <mxGeometry x="331" width="198" height="40" as="geometry">
            <mxRectangle width="66" height="40" as="alternateBounds" />
          </mxGeometry>
        </mxCell>
        <mxCell id="nTpmGstvY4aD5aD-hLBk-32" value="" style="shape=partialRectangle;html=1;whiteSpace=wrap;connectable=0;strokeColor=inherit;overflow=hidden;fillColor=none;top=0;left=0;bottom=0;right=0;pointerEvents=1;" vertex="1" visible="0" parent="nTpmGstvY4aD5aD-hLBk-25">
          <mxGeometry x="397" width="66" height="40" as="geometry">
            <mxRectangle width="66" height="40" as="alternateBounds" />
          </mxGeometry>
        </mxCell>
        <mxCell id="nTpmGstvY4aD5aD-hLBk-33" value="" style="shape=partialRectangle;html=1;whiteSpace=wrap;connectable=0;strokeColor=inherit;overflow=hidden;fillColor=none;top=0;left=0;bottom=0;right=0;pointerEvents=1;" vertex="1" visible="0" parent="nTpmGstvY4aD5aD-hLBk-25">
          <mxGeometry x="463" width="66" height="40" as="geometry">
            <mxRectangle width="66" height="40" as="alternateBounds" />
          </mxGeometry>
        </mxCell>
        <mxCell id="nTpmGstvY4aD5aD-hLBk-34" value="" style="shape=partialRectangle;html=1;whiteSpace=wrap;connectable=0;strokeColor=#d79b00;overflow=hidden;fillColor=#ffe6cc;top=0;left=0;bottom=0;right=0;pointerEvents=1;" vertex="1" parent="nTpmGstvY4aD5aD-hLBk-25">
          <mxGeometry x="529" width="67" height="40" as="geometry">
            <mxRectangle width="67" height="40" as="alternateBounds" />
          </mxGeometry>
        </mxCell>
        <mxCell id="nTpmGstvY4aD5aD-hLBk-35" value="" style="shape=partialRectangle;html=1;whiteSpace=wrap;connectable=0;strokeColor=inherit;overflow=hidden;fillColor=none;top=0;left=0;bottom=0;right=0;pointerEvents=1;rowspan=1;colspan=2;" vertex="1" parent="nTpmGstvY4aD5aD-hLBk-25">
          <mxGeometry x="596" width="131" height="40" as="geometry">
            <mxRectangle width="65" height="40" as="alternateBounds" />
          </mxGeometry>
        </mxCell>
        <mxCell id="nTpmGstvY4aD5aD-hLBk-36" value="" style="shape=partialRectangle;html=1;whiteSpace=wrap;connectable=0;strokeColor=inherit;overflow=hidden;fillColor=none;top=0;left=0;bottom=0;right=0;pointerEvents=1;" vertex="1" visible="0" parent="nTpmGstvY4aD5aD-hLBk-25">
          <mxGeometry x="661" width="66" height="40" as="geometry">
            <mxRectangle width="66" height="40" as="alternateBounds" />
          </mxGeometry>
        </mxCell>
        <mxCell id="nTpmGstvY4aD5aD-hLBk-37" value="" style="shape=partialRectangle;html=1;whiteSpace=wrap;connectable=0;strokeColor=#d79b00;overflow=hidden;fillColor=#ffe6cc;top=0;left=0;bottom=0;right=0;pointerEvents=1;rowspan=1;colspan=2;" vertex="1" parent="nTpmGstvY4aD5aD-hLBk-25">
          <mxGeometry x="727" width="133" height="40" as="geometry">
            <mxRectangle width="67" height="40" as="alternateBounds" />
          </mxGeometry>
        </mxCell>
        <mxCell id="nTpmGstvY4aD5aD-hLBk-38" value="" style="shape=partialRectangle;html=1;whiteSpace=wrap;connectable=0;strokeColor=inherit;overflow=hidden;fillColor=none;top=0;left=0;bottom=0;right=0;pointerEvents=1;" vertex="1" visible="0" parent="nTpmGstvY4aD5aD-hLBk-25">
          <mxGeometry x="794" width="66" height="40" as="geometry">
            <mxRectangle width="66" height="40" as="alternateBounds" />
          </mxGeometry>
        </mxCell>
        <mxCell id="nTpmGstvY4aD5aD-hLBk-39" value="" style="shape=tableRow;horizontal=0;startSize=0;swimlaneHead=0;swimlaneBody=0;strokeColor=inherit;top=0;left=0;bottom=0;right=0;collapsible=0;dropTarget=0;fillColor=none;points=[[0,0.5],[1,0.5]];portConstraint=eastwest;" vertex="1" parent="nTpmGstvY4aD5aD-hLBk-10">
          <mxGeometry y="80" width="860" height="40" as="geometry" />
        </mxCell>
        <mxCell id="nTpmGstvY4aD5aD-hLBk-40" value="" style="shape=partialRectangle;html=1;whiteSpace=wrap;connectable=0;strokeColor=inherit;overflow=hidden;fillColor=none;top=0;left=0;bottom=0;right=0;pointerEvents=1;rowspan=1;colspan=2;" vertex="1" parent="nTpmGstvY4aD5aD-hLBk-39">
          <mxGeometry width="133" height="40" as="geometry">
            <mxRectangle width="62" height="40" as="alternateBounds" />
          </mxGeometry>
        </mxCell>
        <mxCell id="nTpmGstvY4aD5aD-hLBk-41" value="" style="shape=partialRectangle;html=1;whiteSpace=wrap;connectable=0;strokeColor=inherit;overflow=hidden;fillColor=none;top=0;left=0;bottom=0;right=0;pointerEvents=1;" vertex="1" visible="0" parent="nTpmGstvY4aD5aD-hLBk-39">
          <mxGeometry x="62" width="71" height="40" as="geometry">
            <mxRectangle width="71" height="40" as="alternateBounds" />
          </mxGeometry>
        </mxCell>
        <mxCell id="nTpmGstvY4aD5aD-hLBk-42" value="" style="shape=partialRectangle;html=1;whiteSpace=wrap;connectable=0;strokeColor=inherit;overflow=hidden;fillColor=none;top=0;left=0;bottom=0;right=0;pointerEvents=1;" vertex="1" parent="nTpmGstvY4aD5aD-hLBk-39">
          <mxGeometry x="133" width="66" height="40" as="geometry">
            <mxRectangle width="66" height="40" as="alternateBounds" />
          </mxGeometry>
        </mxCell>
        <mxCell id="nTpmGstvY4aD5aD-hLBk-43" value="" style="shape=partialRectangle;html=1;whiteSpace=wrap;connectable=0;strokeColor=inherit;overflow=hidden;fillColor=none;top=0;left=0;bottom=0;right=0;pointerEvents=1;" vertex="1" parent="nTpmGstvY4aD5aD-hLBk-39">
          <mxGeometry x="199" width="65" height="40" as="geometry">
            <mxRectangle width="65" height="40" as="alternateBounds" />
          </mxGeometry>
        </mxCell>
        <mxCell id="nTpmGstvY4aD5aD-hLBk-44" value="" style="shape=partialRectangle;html=1;whiteSpace=wrap;connectable=0;strokeColor=inherit;overflow=hidden;fillColor=none;top=0;left=0;bottom=0;right=0;pointerEvents=1;" vertex="1" parent="nTpmGstvY4aD5aD-hLBk-39">
          <mxGeometry x="264" width="67" height="40" as="geometry">
            <mxRectangle width="67" height="40" as="alternateBounds" />
          </mxGeometry>
        </mxCell>
        <mxCell id="nTpmGstvY4aD5aD-hLBk-45" value="" style="shape=partialRectangle;html=1;whiteSpace=wrap;connectable=0;strokeColor=inherit;overflow=hidden;fillColor=none;top=0;left=0;bottom=0;right=0;pointerEvents=1;" vertex="1" parent="nTpmGstvY4aD5aD-hLBk-39">
          <mxGeometry x="331" width="66" height="40" as="geometry">
            <mxRectangle width="66" height="40" as="alternateBounds" />
          </mxGeometry>
        </mxCell>
        <mxCell id="nTpmGstvY4aD5aD-hLBk-46" value="" style="shape=partialRectangle;html=1;whiteSpace=wrap;connectable=0;strokeColor=inherit;overflow=hidden;fillColor=none;top=0;left=0;bottom=0;right=0;pointerEvents=1;" vertex="1" parent="nTpmGstvY4aD5aD-hLBk-39">
          <mxGeometry x="397" width="66" height="40" as="geometry">
            <mxRectangle width="66" height="40" as="alternateBounds" />
          </mxGeometry>
        </mxCell>
        <mxCell id="nTpmGstvY4aD5aD-hLBk-47" value="" style="shape=partialRectangle;html=1;whiteSpace=wrap;connectable=0;strokeColor=inherit;overflow=hidden;fillColor=none;top=0;left=0;bottom=0;right=0;pointerEvents=1;" vertex="1" parent="nTpmGstvY4aD5aD-hLBk-39">
          <mxGeometry x="463" width="66" height="40" as="geometry">
            <mxRectangle width="66" height="40" as="alternateBounds" />
          </mxGeometry>
        </mxCell>
        <mxCell id="nTpmGstvY4aD5aD-hLBk-48" value="" style="shape=partialRectangle;html=1;whiteSpace=wrap;connectable=0;strokeColor=inherit;overflow=hidden;fillColor=none;top=0;left=0;bottom=0;right=0;pointerEvents=1;" vertex="1" parent="nTpmGstvY4aD5aD-hLBk-39">
          <mxGeometry x="529" width="67" height="40" as="geometry">
            <mxRectangle width="67" height="40" as="alternateBounds" />
          </mxGeometry>
        </mxCell>
        <mxCell id="nTpmGstvY4aD5aD-hLBk-49" value="" style="shape=partialRectangle;html=1;whiteSpace=wrap;connectable=0;strokeColor=inherit;overflow=hidden;fillColor=none;top=0;left=0;bottom=0;right=0;pointerEvents=1;rowspan=1;colspan=2;" vertex="1" parent="nTpmGstvY4aD5aD-hLBk-39">
          <mxGeometry x="596" width="131" height="40" as="geometry">
            <mxRectangle width="65" height="40" as="alternateBounds" />
          </mxGeometry>
        </mxCell>
        <mxCell id="nTpmGstvY4aD5aD-hLBk-50" value="" style="shape=partialRectangle;html=1;whiteSpace=wrap;connectable=0;strokeColor=inherit;overflow=hidden;fillColor=none;top=0;left=0;bottom=0;right=0;pointerEvents=1;" vertex="1" visible="0" parent="nTpmGstvY4aD5aD-hLBk-39">
          <mxGeometry x="661" width="66" height="40" as="geometry">
            <mxRectangle width="66" height="40" as="alternateBounds" />
          </mxGeometry>
        </mxCell>
        <mxCell id="nTpmGstvY4aD5aD-hLBk-51" value="" style="shape=partialRectangle;html=1;whiteSpace=wrap;connectable=0;strokeColor=#d79b00;overflow=hidden;fillColor=#ffe6cc;top=0;left=0;bottom=0;right=0;pointerEvents=1;rowspan=1;colspan=2;" vertex="1" parent="nTpmGstvY4aD5aD-hLBk-39">
          <mxGeometry x="727" width="133" height="40" as="geometry">
            <mxRectangle width="67" height="40" as="alternateBounds" />
          </mxGeometry>
        </mxCell>
        <mxCell id="nTpmGstvY4aD5aD-hLBk-52" value="" style="shape=partialRectangle;html=1;whiteSpace=wrap;connectable=0;strokeColor=inherit;overflow=hidden;fillColor=none;top=0;left=0;bottom=0;right=0;pointerEvents=1;" vertex="1" visible="0" parent="nTpmGstvY4aD5aD-hLBk-39">
          <mxGeometry x="794" width="66" height="40" as="geometry">
            <mxRectangle width="66" height="40" as="alternateBounds" />
          </mxGeometry>
        </mxCell>
        <mxCell id="nTpmGstvY4aD5aD-hLBk-79" style="shape=tableRow;horizontal=0;startSize=0;swimlaneHead=0;swimlaneBody=0;strokeColor=inherit;top=0;left=0;bottom=0;right=0;collapsible=0;dropTarget=0;fillColor=none;points=[[0,0.5],[1,0.5]];portConstraint=eastwest;" vertex="1" parent="nTpmGstvY4aD5aD-hLBk-10">
          <mxGeometry y="120" width="860" height="40" as="geometry" />
        </mxCell>
        <mxCell id="nTpmGstvY4aD5aD-hLBk-80" style="shape=partialRectangle;html=1;whiteSpace=wrap;connectable=0;strokeColor=inherit;overflow=hidden;fillColor=none;top=0;left=0;bottom=0;right=0;pointerEvents=1;rowspan=1;colspan=2;" vertex="1" parent="nTpmGstvY4aD5aD-hLBk-79">
          <mxGeometry width="133" height="40" as="geometry">
            <mxRectangle width="62" height="40" as="alternateBounds" />
          </mxGeometry>
        </mxCell>
        <mxCell id="nTpmGstvY4aD5aD-hLBk-81" style="shape=partialRectangle;html=1;whiteSpace=wrap;connectable=0;strokeColor=inherit;overflow=hidden;fillColor=none;top=0;left=0;bottom=0;right=0;pointerEvents=1;" vertex="1" visible="0" parent="nTpmGstvY4aD5aD-hLBk-79">
          <mxGeometry x="62" width="71" height="40" as="geometry">
            <mxRectangle width="71" height="40" as="alternateBounds" />
          </mxGeometry>
        </mxCell>
        <mxCell id="nTpmGstvY4aD5aD-hLBk-82" style="shape=partialRectangle;html=1;whiteSpace=wrap;connectable=0;strokeColor=inherit;overflow=hidden;fillColor=none;top=0;left=0;bottom=0;right=0;pointerEvents=1;rowspan=1;colspan=11;" vertex="1" parent="nTpmGstvY4aD5aD-hLBk-79">
          <mxGeometry x="133" width="727" height="40" as="geometry">
            <mxRectangle width="66" height="40" as="alternateBounds" />
          </mxGeometry>
        </mxCell>
        <mxCell id="nTpmGstvY4aD5aD-hLBk-83" style="shape=partialRectangle;html=1;whiteSpace=wrap;connectable=0;strokeColor=inherit;overflow=hidden;fillColor=none;top=0;left=0;bottom=0;right=0;pointerEvents=1;" vertex="1" visible="0" parent="nTpmGstvY4aD5aD-hLBk-79">
          <mxGeometry x="199" width="65" height="40" as="geometry">
            <mxRectangle width="65" height="40" as="alternateBounds" />
          </mxGeometry>
        </mxCell>
        <mxCell id="nTpmGstvY4aD5aD-hLBk-84" style="shape=partialRectangle;html=1;whiteSpace=wrap;connectable=0;strokeColor=inherit;overflow=hidden;fillColor=none;top=0;left=0;bottom=0;right=0;pointerEvents=1;" vertex="1" visible="0" parent="nTpmGstvY4aD5aD-hLBk-79">
          <mxGeometry x="264" width="67" height="40" as="geometry">
            <mxRectangle width="67" height="40" as="alternateBounds" />
          </mxGeometry>
        </mxCell>
        <mxCell id="nTpmGstvY4aD5aD-hLBk-85" style="shape=partialRectangle;html=1;whiteSpace=wrap;connectable=0;strokeColor=inherit;overflow=hidden;fillColor=none;top=0;left=0;bottom=0;right=0;pointerEvents=1;" vertex="1" visible="0" parent="nTpmGstvY4aD5aD-hLBk-79">
          <mxGeometry x="331" width="66" height="40" as="geometry">
            <mxRectangle width="66" height="40" as="alternateBounds" />
          </mxGeometry>
        </mxCell>
        <mxCell id="nTpmGstvY4aD5aD-hLBk-86" style="shape=partialRectangle;html=1;whiteSpace=wrap;connectable=0;strokeColor=inherit;overflow=hidden;fillColor=none;top=0;left=0;bottom=0;right=0;pointerEvents=1;" vertex="1" visible="0" parent="nTpmGstvY4aD5aD-hLBk-79">
          <mxGeometry x="397" width="66" height="40" as="geometry">
            <mxRectangle width="66" height="40" as="alternateBounds" />
          </mxGeometry>
        </mxCell>
        <mxCell id="nTpmGstvY4aD5aD-hLBk-87" style="shape=partialRectangle;html=1;whiteSpace=wrap;connectable=0;strokeColor=inherit;overflow=hidden;fillColor=none;top=0;left=0;bottom=0;right=0;pointerEvents=1;" vertex="1" visible="0" parent="nTpmGstvY4aD5aD-hLBk-79">
          <mxGeometry x="463" width="66" height="40" as="geometry">
            <mxRectangle width="66" height="40" as="alternateBounds" />
          </mxGeometry>
        </mxCell>
        <mxCell id="nTpmGstvY4aD5aD-hLBk-88" style="shape=partialRectangle;html=1;whiteSpace=wrap;connectable=0;strokeColor=inherit;overflow=hidden;fillColor=none;top=0;left=0;bottom=0;right=0;pointerEvents=1;" vertex="1" visible="0" parent="nTpmGstvY4aD5aD-hLBk-79">
          <mxGeometry x="529" width="67" height="40" as="geometry">
            <mxRectangle width="67" height="40" as="alternateBounds" />
          </mxGeometry>
        </mxCell>
        <mxCell id="nTpmGstvY4aD5aD-hLBk-89" style="shape=partialRectangle;html=1;whiteSpace=wrap;connectable=0;strokeColor=inherit;overflow=hidden;fillColor=none;top=0;left=0;bottom=0;right=0;pointerEvents=1;" vertex="1" visible="0" parent="nTpmGstvY4aD5aD-hLBk-79">
          <mxGeometry x="596" width="65" height="40" as="geometry">
            <mxRectangle width="65" height="40" as="alternateBounds" />
          </mxGeometry>
        </mxCell>
        <mxCell id="nTpmGstvY4aD5aD-hLBk-90" style="shape=partialRectangle;html=1;whiteSpace=wrap;connectable=0;strokeColor=inherit;overflow=hidden;fillColor=none;top=0;left=0;bottom=0;right=0;pointerEvents=1;" vertex="1" visible="0" parent="nTpmGstvY4aD5aD-hLBk-79">
          <mxGeometry x="661" width="66" height="40" as="geometry">
            <mxRectangle width="66" height="40" as="alternateBounds" />
          </mxGeometry>
        </mxCell>
        <mxCell id="nTpmGstvY4aD5aD-hLBk-91" style="shape=partialRectangle;html=1;whiteSpace=wrap;connectable=0;strokeColor=inherit;overflow=hidden;fillColor=none;top=0;left=0;bottom=0;right=0;pointerEvents=1;" vertex="1" visible="0" parent="nTpmGstvY4aD5aD-hLBk-79">
          <mxGeometry x="727" width="67" height="40" as="geometry">
            <mxRectangle width="67" height="40" as="alternateBounds" />
          </mxGeometry>
        </mxCell>
        <mxCell id="nTpmGstvY4aD5aD-hLBk-92" style="shape=partialRectangle;html=1;whiteSpace=wrap;connectable=0;strokeColor=inherit;overflow=hidden;fillColor=none;top=0;left=0;bottom=0;right=0;pointerEvents=1;" vertex="1" visible="0" parent="nTpmGstvY4aD5aD-hLBk-79">
          <mxGeometry x="794" width="66" height="40" as="geometry">
            <mxRectangle width="66" height="40" as="alternateBounds" />
          </mxGeometry>
        </mxCell>
        <mxCell id="nTpmGstvY4aD5aD-hLBk-259" value="" style="shape=table;startSize=0;container=1;collapsible=0;childLayout=tableLayout;sketch=1;curveFitting=1;jiggle=2;fillColor=#dae8fc;strokeColor=#6c8ebf;" vertex="1" parent="1">
          <mxGeometry x="100" y="390" width="860" height="500" as="geometry" />
        </mxCell>
        <mxCell id="nTpmGstvY4aD5aD-hLBk-260" value="" style="shape=tableRow;horizontal=0;startSize=0;swimlaneHead=0;swimlaneBody=0;strokeColor=inherit;top=0;left=0;bottom=0;right=0;collapsible=0;dropTarget=0;fillColor=none;points=[[0,0.5],[1,0.5]];portConstraint=eastwest;" vertex="1" parent="nTpmGstvY4aD5aD-hLBk-259">
          <mxGeometry width="860" height="42" as="geometry" />
        </mxCell>
        <mxCell id="nTpmGstvY4aD5aD-hLBk-261" value="" style="shape=partialRectangle;html=1;whiteSpace=wrap;connectable=0;strokeColor=inherit;overflow=hidden;fillColor=none;top=0;left=0;bottom=0;right=0;pointerEvents=1;" vertex="1" parent="nTpmGstvY4aD5aD-hLBk-260">
          <mxGeometry width="51" height="42" as="geometry">
            <mxRectangle width="51" height="42" as="alternateBounds" />
          </mxGeometry>
        </mxCell>
        <mxCell id="nTpmGstvY4aD5aD-hLBk-262" value="" style="shape=partialRectangle;html=1;whiteSpace=wrap;connectable=0;strokeColor=inherit;overflow=hidden;fillColor=none;top=0;left=0;bottom=0;right=0;pointerEvents=1;" vertex="1" parent="nTpmGstvY4aD5aD-hLBk-260">
          <mxGeometry x="51" width="139" height="42" as="geometry">
            <mxRectangle width="139" height="42" as="alternateBounds" />
          </mxGeometry>
        </mxCell>
        <mxCell id="nTpmGstvY4aD5aD-hLBk-263" value="14 * 17" style="shape=partialRectangle;html=1;whiteSpace=wrap;connectable=0;strokeColor=#6c8ebf;overflow=hidden;fillColor=#dae8fc;top=0;left=0;bottom=0;right=0;pointerEvents=1;" vertex="1" parent="nTpmGstvY4aD5aD-hLBk-260">
          <mxGeometry x="190" width="430" height="42" as="geometry">
            <mxRectangle width="430" height="42" as="alternateBounds" />
          </mxGeometry>
        </mxCell>
        <mxCell id="nTpmGstvY4aD5aD-hLBk-264" value="" style="shape=partialRectangle;html=1;whiteSpace=wrap;connectable=0;strokeColor=inherit;overflow=hidden;fillColor=none;top=0;left=0;bottom=0;right=0;pointerEvents=1;" vertex="1" parent="nTpmGstvY4aD5aD-hLBk-260">
          <mxGeometry x="620" width="60" height="42" as="geometry">
            <mxRectangle width="60" height="42" as="alternateBounds" />
          </mxGeometry>
        </mxCell>
        <mxCell id="nTpmGstvY4aD5aD-hLBk-265" value="" style="shape=partialRectangle;html=1;whiteSpace=wrap;connectable=0;strokeColor=inherit;overflow=hidden;fillColor=none;top=0;left=0;bottom=0;right=0;pointerEvents=1;" vertex="1" parent="nTpmGstvY4aD5aD-hLBk-260">
          <mxGeometry x="680" width="70" height="42" as="geometry">
            <mxRectangle width="70" height="42" as="alternateBounds" />
          </mxGeometry>
        </mxCell>
        <mxCell id="nTpmGstvY4aD5aD-hLBk-266" value="" style="shape=partialRectangle;html=1;whiteSpace=wrap;connectable=0;strokeColor=inherit;overflow=hidden;fillColor=none;top=0;left=0;bottom=0;right=0;pointerEvents=1;" vertex="1" parent="nTpmGstvY4aD5aD-hLBk-260">
          <mxGeometry x="750" width="50" height="42" as="geometry">
            <mxRectangle width="50" height="42" as="alternateBounds" />
          </mxGeometry>
        </mxCell>
        <mxCell id="nTpmGstvY4aD5aD-hLBk-267" value="" style="shape=partialRectangle;html=1;whiteSpace=wrap;connectable=0;strokeColor=inherit;overflow=hidden;fillColor=none;top=0;left=0;bottom=0;right=0;pointerEvents=1;" vertex="1" parent="nTpmGstvY4aD5aD-hLBk-260">
          <mxGeometry x="800" width="60" height="42" as="geometry">
            <mxRectangle width="60" height="42" as="alternateBounds" />
          </mxGeometry>
        </mxCell>
        <mxCell id="nTpmGstvY4aD5aD-hLBk-268" value="" style="shape=tableRow;horizontal=0;startSize=0;swimlaneHead=0;swimlaneBody=0;strokeColor=inherit;top=0;left=0;bottom=0;right=0;collapsible=0;dropTarget=0;fillColor=none;points=[[0,0.5],[1,0.5]];portConstraint=eastwest;" vertex="1" parent="nTpmGstvY4aD5aD-hLBk-259">
          <mxGeometry y="42" width="860" height="41" as="geometry" />
        </mxCell>
        <mxCell id="nTpmGstvY4aD5aD-hLBk-269" value="" style="shape=partialRectangle;html=1;whiteSpace=wrap;connectable=0;strokeColor=inherit;overflow=hidden;fillColor=none;top=0;left=0;bottom=0;right=0;pointerEvents=1;" vertex="1" parent="nTpmGstvY4aD5aD-hLBk-268">
          <mxGeometry width="51" height="41" as="geometry">
            <mxRectangle width="51" height="41" as="alternateBounds" />
          </mxGeometry>
        </mxCell>
        <mxCell id="nTpmGstvY4aD5aD-hLBk-270" value="" style="shape=partialRectangle;html=1;whiteSpace=wrap;connectable=0;strokeColor=inherit;overflow=hidden;fillColor=none;top=0;left=0;bottom=0;right=0;pointerEvents=1;" vertex="1" parent="nTpmGstvY4aD5aD-hLBk-268">
          <mxGeometry x="51" width="139" height="41" as="geometry">
            <mxRectangle width="139" height="41" as="alternateBounds" />
          </mxGeometry>
        </mxCell>
        <mxCell id="nTpmGstvY4aD5aD-hLBk-271" value="" style="shape=partialRectangle;html=1;whiteSpace=wrap;connectable=0;strokeColor=inherit;overflow=hidden;fillColor=none;top=0;left=0;bottom=0;right=0;pointerEvents=1;" vertex="1" parent="nTpmGstvY4aD5aD-hLBk-268">
          <mxGeometry x="190" width="430" height="41" as="geometry">
            <mxRectangle width="430" height="41" as="alternateBounds" />
          </mxGeometry>
        </mxCell>
        <mxCell id="nTpmGstvY4aD5aD-hLBk-272" value="" style="shape=partialRectangle;html=1;whiteSpace=wrap;connectable=0;strokeColor=inherit;overflow=hidden;fillColor=none;top=0;left=0;bottom=0;right=0;pointerEvents=1;" vertex="1" parent="nTpmGstvY4aD5aD-hLBk-268">
          <mxGeometry x="620" width="60" height="41" as="geometry">
            <mxRectangle width="60" height="41" as="alternateBounds" />
          </mxGeometry>
        </mxCell>
        <mxCell id="nTpmGstvY4aD5aD-hLBk-273" value="" style="shape=partialRectangle;html=1;whiteSpace=wrap;connectable=0;strokeColor=inherit;overflow=hidden;fillColor=none;top=0;left=0;bottom=0;right=0;pointerEvents=1;" vertex="1" parent="nTpmGstvY4aD5aD-hLBk-268">
          <mxGeometry x="680" width="70" height="41" as="geometry">
            <mxRectangle width="70" height="41" as="alternateBounds" />
          </mxGeometry>
        </mxCell>
        <mxCell id="nTpmGstvY4aD5aD-hLBk-274" value="" style="shape=partialRectangle;html=1;whiteSpace=wrap;connectable=0;strokeColor=inherit;overflow=hidden;fillColor=none;top=0;left=0;bottom=0;right=0;pointerEvents=1;" vertex="1" parent="nTpmGstvY4aD5aD-hLBk-268">
          <mxGeometry x="750" width="50" height="41" as="geometry">
            <mxRectangle width="50" height="41" as="alternateBounds" />
          </mxGeometry>
        </mxCell>
        <mxCell id="nTpmGstvY4aD5aD-hLBk-275" value="" style="shape=partialRectangle;html=1;whiteSpace=wrap;connectable=0;strokeColor=inherit;overflow=hidden;fillColor=none;top=0;left=0;bottom=0;right=0;pointerEvents=1;" vertex="1" parent="nTpmGstvY4aD5aD-hLBk-268">
          <mxGeometry x="800" width="60" height="41" as="geometry">
            <mxRectangle width="60" height="41" as="alternateBounds" />
          </mxGeometry>
        </mxCell>
        <mxCell id="nTpmGstvY4aD5aD-hLBk-276" value="" style="shape=tableRow;horizontal=0;startSize=0;swimlaneHead=0;swimlaneBody=0;strokeColor=inherit;top=0;left=0;bottom=0;right=0;collapsible=0;dropTarget=0;fillColor=none;points=[[0,0.5],[1,0.5]];portConstraint=eastwest;" vertex="1" parent="nTpmGstvY4aD5aD-hLBk-259">
          <mxGeometry y="83" width="860" height="42" as="geometry" />
        </mxCell>
        <mxCell id="nTpmGstvY4aD5aD-hLBk-277" value="" style="shape=partialRectangle;html=1;whiteSpace=wrap;connectable=0;strokeColor=inherit;overflow=hidden;fillColor=none;top=0;left=0;bottom=0;right=0;pointerEvents=1;" vertex="1" parent="nTpmGstvY4aD5aD-hLBk-276">
          <mxGeometry width="51" height="42" as="geometry">
            <mxRectangle width="51" height="42" as="alternateBounds" />
          </mxGeometry>
        </mxCell>
        <mxCell id="nTpmGstvY4aD5aD-hLBk-278" value="" style="shape=partialRectangle;html=1;whiteSpace=wrap;connectable=0;strokeColor=inherit;overflow=hidden;fillColor=none;top=0;left=0;bottom=0;right=0;pointerEvents=1;" vertex="1" parent="nTpmGstvY4aD5aD-hLBk-276">
          <mxGeometry x="51" width="139" height="42" as="geometry">
            <mxRectangle width="139" height="42" as="alternateBounds" />
          </mxGeometry>
        </mxCell>
        <mxCell id="nTpmGstvY4aD5aD-hLBk-279" value="" style="shape=partialRectangle;html=1;whiteSpace=wrap;connectable=0;strokeColor=inherit;overflow=hidden;fillColor=none;top=0;left=0;bottom=0;right=0;pointerEvents=1;" vertex="1" parent="nTpmGstvY4aD5aD-hLBk-276">
          <mxGeometry x="190" width="430" height="42" as="geometry">
            <mxRectangle width="430" height="42" as="alternateBounds" />
          </mxGeometry>
        </mxCell>
        <mxCell id="nTpmGstvY4aD5aD-hLBk-280" value="" style="shape=partialRectangle;html=1;whiteSpace=wrap;connectable=0;strokeColor=inherit;overflow=hidden;fillColor=none;top=0;left=0;bottom=0;right=0;pointerEvents=1;" vertex="1" parent="nTpmGstvY4aD5aD-hLBk-276">
          <mxGeometry x="620" width="60" height="42" as="geometry">
            <mxRectangle width="60" height="42" as="alternateBounds" />
          </mxGeometry>
        </mxCell>
        <mxCell id="nTpmGstvY4aD5aD-hLBk-281" value="" style="shape=partialRectangle;html=1;whiteSpace=wrap;connectable=0;strokeColor=inherit;overflow=hidden;fillColor=none;top=0;left=0;bottom=0;right=0;pointerEvents=1;" vertex="1" parent="nTpmGstvY4aD5aD-hLBk-276">
          <mxGeometry x="680" width="70" height="42" as="geometry">
            <mxRectangle width="70" height="42" as="alternateBounds" />
          </mxGeometry>
        </mxCell>
        <mxCell id="nTpmGstvY4aD5aD-hLBk-282" value="" style="shape=partialRectangle;html=1;whiteSpace=wrap;connectable=0;strokeColor=inherit;overflow=hidden;fillColor=none;top=0;left=0;bottom=0;right=0;pointerEvents=1;" vertex="1" parent="nTpmGstvY4aD5aD-hLBk-276">
          <mxGeometry x="750" width="50" height="42" as="geometry">
            <mxRectangle width="50" height="42" as="alternateBounds" />
          </mxGeometry>
        </mxCell>
        <mxCell id="nTpmGstvY4aD5aD-hLBk-283" value="" style="shape=partialRectangle;html=1;whiteSpace=wrap;connectable=0;strokeColor=inherit;overflow=hidden;fillColor=none;top=0;left=0;bottom=0;right=0;pointerEvents=1;" vertex="1" parent="nTpmGstvY4aD5aD-hLBk-276">
          <mxGeometry x="800" width="60" height="42" as="geometry">
            <mxRectangle width="60" height="42" as="alternateBounds" />
          </mxGeometry>
        </mxCell>
        <mxCell id="nTpmGstvY4aD5aD-hLBk-284" value="" style="shape=tableRow;horizontal=0;startSize=0;swimlaneHead=0;swimlaneBody=0;strokeColor=inherit;top=0;left=0;bottom=0;right=0;collapsible=0;dropTarget=0;fillColor=none;points=[[0,0.5],[1,0.5]];portConstraint=eastwest;" vertex="1" parent="nTpmGstvY4aD5aD-hLBk-259">
          <mxGeometry y="125" width="860" height="42" as="geometry" />
        </mxCell>
        <mxCell id="nTpmGstvY4aD5aD-hLBk-285" value="" style="shape=partialRectangle;html=1;whiteSpace=wrap;connectable=0;strokeColor=inherit;overflow=hidden;fillColor=none;top=0;left=0;bottom=0;right=0;pointerEvents=1;" vertex="1" parent="nTpmGstvY4aD5aD-hLBk-284">
          <mxGeometry width="51" height="42" as="geometry">
            <mxRectangle width="51" height="42" as="alternateBounds" />
          </mxGeometry>
        </mxCell>
        <mxCell id="nTpmGstvY4aD5aD-hLBk-286" value="" style="shape=partialRectangle;html=1;whiteSpace=wrap;connectable=0;strokeColor=inherit;overflow=hidden;fillColor=none;top=0;left=0;bottom=0;right=0;pointerEvents=1;" vertex="1" parent="nTpmGstvY4aD5aD-hLBk-284">
          <mxGeometry x="51" width="139" height="42" as="geometry">
            <mxRectangle width="139" height="42" as="alternateBounds" />
          </mxGeometry>
        </mxCell>
        <mxCell id="nTpmGstvY4aD5aD-hLBk-287" value="" style="shape=partialRectangle;html=1;whiteSpace=wrap;connectable=0;strokeColor=inherit;overflow=hidden;fillColor=none;top=0;left=0;bottom=0;right=0;pointerEvents=1;" vertex="1" parent="nTpmGstvY4aD5aD-hLBk-284">
          <mxGeometry x="190" width="430" height="42" as="geometry">
            <mxRectangle width="430" height="42" as="alternateBounds" />
          </mxGeometry>
        </mxCell>
        <mxCell id="nTpmGstvY4aD5aD-hLBk-288" value="" style="shape=partialRectangle;html=1;whiteSpace=wrap;connectable=0;strokeColor=inherit;overflow=hidden;fillColor=none;top=0;left=0;bottom=0;right=0;pointerEvents=1;" vertex="1" parent="nTpmGstvY4aD5aD-hLBk-284">
          <mxGeometry x="620" width="60" height="42" as="geometry">
            <mxRectangle width="60" height="42" as="alternateBounds" />
          </mxGeometry>
        </mxCell>
        <mxCell id="nTpmGstvY4aD5aD-hLBk-289" value="" style="shape=partialRectangle;html=1;whiteSpace=wrap;connectable=0;strokeColor=inherit;overflow=hidden;fillColor=none;top=0;left=0;bottom=0;right=0;pointerEvents=1;" vertex="1" parent="nTpmGstvY4aD5aD-hLBk-284">
          <mxGeometry x="680" width="70" height="42" as="geometry">
            <mxRectangle width="70" height="42" as="alternateBounds" />
          </mxGeometry>
        </mxCell>
        <mxCell id="nTpmGstvY4aD5aD-hLBk-290" value="" style="shape=partialRectangle;html=1;whiteSpace=wrap;connectable=0;strokeColor=inherit;overflow=hidden;fillColor=none;top=0;left=0;bottom=0;right=0;pointerEvents=1;" vertex="1" parent="nTpmGstvY4aD5aD-hLBk-284">
          <mxGeometry x="750" width="50" height="42" as="geometry">
            <mxRectangle width="50" height="42" as="alternateBounds" />
          </mxGeometry>
        </mxCell>
        <mxCell id="nTpmGstvY4aD5aD-hLBk-291" value="" style="shape=partialRectangle;html=1;whiteSpace=wrap;connectable=0;strokeColor=inherit;overflow=hidden;fillColor=none;top=0;left=0;bottom=0;right=0;pointerEvents=1;" vertex="1" parent="nTpmGstvY4aD5aD-hLBk-284">
          <mxGeometry x="800" width="60" height="42" as="geometry">
            <mxRectangle width="60" height="42" as="alternateBounds" />
          </mxGeometry>
        </mxCell>
        <mxCell id="nTpmGstvY4aD5aD-hLBk-292" value="" style="shape=tableRow;horizontal=0;startSize=0;swimlaneHead=0;swimlaneBody=0;strokeColor=inherit;top=0;left=0;bottom=0;right=0;collapsible=0;dropTarget=0;fillColor=none;points=[[0,0.5],[1,0.5]];portConstraint=eastwest;" vertex="1" parent="nTpmGstvY4aD5aD-hLBk-259">
          <mxGeometry y="167" width="860" height="41" as="geometry" />
        </mxCell>
        <mxCell id="nTpmGstvY4aD5aD-hLBk-293" value="" style="shape=partialRectangle;html=1;whiteSpace=wrap;connectable=0;strokeColor=inherit;overflow=hidden;fillColor=none;top=0;left=0;bottom=0;right=0;pointerEvents=1;" vertex="1" parent="nTpmGstvY4aD5aD-hLBk-292">
          <mxGeometry width="51" height="41" as="geometry">
            <mxRectangle width="51" height="41" as="alternateBounds" />
          </mxGeometry>
        </mxCell>
        <mxCell id="nTpmGstvY4aD5aD-hLBk-294" value="" style="shape=partialRectangle;html=1;whiteSpace=wrap;connectable=0;strokeColor=inherit;overflow=hidden;fillColor=none;top=0;left=0;bottom=0;right=0;pointerEvents=1;" vertex="1" parent="nTpmGstvY4aD5aD-hLBk-292">
          <mxGeometry x="51" width="139" height="41" as="geometry">
            <mxRectangle width="139" height="41" as="alternateBounds" />
          </mxGeometry>
        </mxCell>
        <mxCell id="nTpmGstvY4aD5aD-hLBk-295" value="" style="shape=partialRectangle;html=1;whiteSpace=wrap;connectable=0;strokeColor=inherit;overflow=hidden;fillColor=none;top=0;left=0;bottom=0;right=0;pointerEvents=1;" vertex="1" parent="nTpmGstvY4aD5aD-hLBk-292">
          <mxGeometry x="190" width="430" height="41" as="geometry">
            <mxRectangle width="430" height="41" as="alternateBounds" />
          </mxGeometry>
        </mxCell>
        <mxCell id="nTpmGstvY4aD5aD-hLBk-296" value="" style="shape=partialRectangle;html=1;whiteSpace=wrap;connectable=0;strokeColor=inherit;overflow=hidden;fillColor=none;top=0;left=0;bottom=0;right=0;pointerEvents=1;" vertex="1" parent="nTpmGstvY4aD5aD-hLBk-292">
          <mxGeometry x="620" width="60" height="41" as="geometry">
            <mxRectangle width="60" height="41" as="alternateBounds" />
          </mxGeometry>
        </mxCell>
        <mxCell id="nTpmGstvY4aD5aD-hLBk-297" value="" style="shape=partialRectangle;html=1;whiteSpace=wrap;connectable=0;strokeColor=inherit;overflow=hidden;fillColor=none;top=0;left=0;bottom=0;right=0;pointerEvents=1;" vertex="1" parent="nTpmGstvY4aD5aD-hLBk-292">
          <mxGeometry x="680" width="70" height="41" as="geometry">
            <mxRectangle width="70" height="41" as="alternateBounds" />
          </mxGeometry>
        </mxCell>
        <mxCell id="nTpmGstvY4aD5aD-hLBk-298" value="" style="shape=partialRectangle;html=1;whiteSpace=wrap;connectable=0;strokeColor=inherit;overflow=hidden;fillColor=none;top=0;left=0;bottom=0;right=0;pointerEvents=1;" vertex="1" parent="nTpmGstvY4aD5aD-hLBk-292">
          <mxGeometry x="750" width="50" height="41" as="geometry">
            <mxRectangle width="50" height="41" as="alternateBounds" />
          </mxGeometry>
        </mxCell>
        <mxCell id="nTpmGstvY4aD5aD-hLBk-299" value="" style="shape=partialRectangle;html=1;whiteSpace=wrap;connectable=0;strokeColor=inherit;overflow=hidden;fillColor=none;top=0;left=0;bottom=0;right=0;pointerEvents=1;" vertex="1" parent="nTpmGstvY4aD5aD-hLBk-292">
          <mxGeometry x="800" width="60" height="41" as="geometry">
            <mxRectangle width="60" height="41" as="alternateBounds" />
          </mxGeometry>
        </mxCell>
        <mxCell id="nTpmGstvY4aD5aD-hLBk-300" value="" style="shape=tableRow;horizontal=0;startSize=0;swimlaneHead=0;swimlaneBody=0;strokeColor=inherit;top=0;left=0;bottom=0;right=0;collapsible=0;dropTarget=0;fillColor=none;points=[[0,0.5],[1,0.5]];portConstraint=eastwest;" vertex="1" parent="nTpmGstvY4aD5aD-hLBk-259">
          <mxGeometry y="208" width="860" height="42" as="geometry" />
        </mxCell>
        <mxCell id="nTpmGstvY4aD5aD-hLBk-301" value="" style="shape=partialRectangle;html=1;whiteSpace=wrap;connectable=0;strokeColor=inherit;overflow=hidden;fillColor=none;top=0;left=0;bottom=0;right=0;pointerEvents=1;" vertex="1" parent="nTpmGstvY4aD5aD-hLBk-300">
          <mxGeometry width="51" height="42" as="geometry">
            <mxRectangle width="51" height="42" as="alternateBounds" />
          </mxGeometry>
        </mxCell>
        <mxCell id="nTpmGstvY4aD5aD-hLBk-302" value="" style="shape=partialRectangle;html=1;whiteSpace=wrap;connectable=0;strokeColor=inherit;overflow=hidden;fillColor=none;top=0;left=0;bottom=0;right=0;pointerEvents=1;" vertex="1" parent="nTpmGstvY4aD5aD-hLBk-300">
          <mxGeometry x="51" width="139" height="42" as="geometry">
            <mxRectangle width="139" height="42" as="alternateBounds" />
          </mxGeometry>
        </mxCell>
        <mxCell id="nTpmGstvY4aD5aD-hLBk-303" value="" style="shape=partialRectangle;html=1;whiteSpace=wrap;connectable=0;strokeColor=inherit;overflow=hidden;fillColor=none;top=0;left=0;bottom=0;right=0;pointerEvents=1;" vertex="1" parent="nTpmGstvY4aD5aD-hLBk-300">
          <mxGeometry x="190" width="430" height="42" as="geometry">
            <mxRectangle width="430" height="42" as="alternateBounds" />
          </mxGeometry>
        </mxCell>
        <mxCell id="nTpmGstvY4aD5aD-hLBk-304" value="" style="shape=partialRectangle;html=1;whiteSpace=wrap;connectable=0;strokeColor=inherit;overflow=hidden;fillColor=none;top=0;left=0;bottom=0;right=0;pointerEvents=1;" vertex="1" parent="nTpmGstvY4aD5aD-hLBk-300">
          <mxGeometry x="620" width="60" height="42" as="geometry">
            <mxRectangle width="60" height="42" as="alternateBounds" />
          </mxGeometry>
        </mxCell>
        <mxCell id="nTpmGstvY4aD5aD-hLBk-305" value="" style="shape=partialRectangle;html=1;whiteSpace=wrap;connectable=0;strokeColor=inherit;overflow=hidden;fillColor=none;top=0;left=0;bottom=0;right=0;pointerEvents=1;" vertex="1" parent="nTpmGstvY4aD5aD-hLBk-300">
          <mxGeometry x="680" width="70" height="42" as="geometry">
            <mxRectangle width="70" height="42" as="alternateBounds" />
          </mxGeometry>
        </mxCell>
        <mxCell id="nTpmGstvY4aD5aD-hLBk-306" value="" style="shape=partialRectangle;html=1;whiteSpace=wrap;connectable=0;strokeColor=inherit;overflow=hidden;fillColor=none;top=0;left=0;bottom=0;right=0;pointerEvents=1;" vertex="1" parent="nTpmGstvY4aD5aD-hLBk-300">
          <mxGeometry x="750" width="50" height="42" as="geometry">
            <mxRectangle width="50" height="42" as="alternateBounds" />
          </mxGeometry>
        </mxCell>
        <mxCell id="nTpmGstvY4aD5aD-hLBk-307" value="" style="shape=partialRectangle;html=1;whiteSpace=wrap;connectable=0;strokeColor=inherit;overflow=hidden;fillColor=none;top=0;left=0;bottom=0;right=0;pointerEvents=1;" vertex="1" parent="nTpmGstvY4aD5aD-hLBk-300">
          <mxGeometry x="800" width="60" height="42" as="geometry">
            <mxRectangle width="60" height="42" as="alternateBounds" />
          </mxGeometry>
        </mxCell>
        <mxCell id="nTpmGstvY4aD5aD-hLBk-308" value="" style="shape=tableRow;horizontal=0;startSize=0;swimlaneHead=0;swimlaneBody=0;strokeColor=inherit;top=0;left=0;bottom=0;right=0;collapsible=0;dropTarget=0;fillColor=none;points=[[0,0.5],[1,0.5]];portConstraint=eastwest;" vertex="1" parent="nTpmGstvY4aD5aD-hLBk-259">
          <mxGeometry y="250" width="860" height="42" as="geometry" />
        </mxCell>
        <mxCell id="nTpmGstvY4aD5aD-hLBk-309" value="" style="shape=partialRectangle;html=1;whiteSpace=wrap;connectable=0;strokeColor=inherit;overflow=hidden;fillColor=none;top=0;left=0;bottom=0;right=0;pointerEvents=1;" vertex="1" parent="nTpmGstvY4aD5aD-hLBk-308">
          <mxGeometry width="51" height="42" as="geometry">
            <mxRectangle width="51" height="42" as="alternateBounds" />
          </mxGeometry>
        </mxCell>
        <mxCell id="nTpmGstvY4aD5aD-hLBk-310" value="" style="shape=partialRectangle;html=1;whiteSpace=wrap;connectable=0;strokeColor=inherit;overflow=hidden;fillColor=none;top=0;left=0;bottom=0;right=0;pointerEvents=1;" vertex="1" parent="nTpmGstvY4aD5aD-hLBk-308">
          <mxGeometry x="51" width="139" height="42" as="geometry">
            <mxRectangle width="139" height="42" as="alternateBounds" />
          </mxGeometry>
        </mxCell>
        <mxCell id="nTpmGstvY4aD5aD-hLBk-311" value="" style="shape=partialRectangle;html=1;whiteSpace=wrap;connectable=0;strokeColor=inherit;overflow=hidden;fillColor=none;top=0;left=0;bottom=0;right=0;pointerEvents=1;" vertex="1" parent="nTpmGstvY4aD5aD-hLBk-308">
          <mxGeometry x="190" width="430" height="42" as="geometry">
            <mxRectangle width="430" height="42" as="alternateBounds" />
          </mxGeometry>
        </mxCell>
        <mxCell id="nTpmGstvY4aD5aD-hLBk-312" value="" style="shape=partialRectangle;html=1;whiteSpace=wrap;connectable=0;strokeColor=inherit;overflow=hidden;fillColor=none;top=0;left=0;bottom=0;right=0;pointerEvents=1;" vertex="1" parent="nTpmGstvY4aD5aD-hLBk-308">
          <mxGeometry x="620" width="60" height="42" as="geometry">
            <mxRectangle width="60" height="42" as="alternateBounds" />
          </mxGeometry>
        </mxCell>
        <mxCell id="nTpmGstvY4aD5aD-hLBk-313" value="" style="shape=partialRectangle;html=1;whiteSpace=wrap;connectable=0;strokeColor=inherit;overflow=hidden;fillColor=none;top=0;left=0;bottom=0;right=0;pointerEvents=1;" vertex="1" parent="nTpmGstvY4aD5aD-hLBk-308">
          <mxGeometry x="680" width="70" height="42" as="geometry">
            <mxRectangle width="70" height="42" as="alternateBounds" />
          </mxGeometry>
        </mxCell>
        <mxCell id="nTpmGstvY4aD5aD-hLBk-314" value="" style="shape=partialRectangle;html=1;whiteSpace=wrap;connectable=0;strokeColor=inherit;overflow=hidden;fillColor=none;top=0;left=0;bottom=0;right=0;pointerEvents=1;" vertex="1" parent="nTpmGstvY4aD5aD-hLBk-308">
          <mxGeometry x="750" width="50" height="42" as="geometry">
            <mxRectangle width="50" height="42" as="alternateBounds" />
          </mxGeometry>
        </mxCell>
        <mxCell id="nTpmGstvY4aD5aD-hLBk-315" value="" style="shape=partialRectangle;html=1;whiteSpace=wrap;connectable=0;strokeColor=inherit;overflow=hidden;fillColor=none;top=0;left=0;bottom=0;right=0;pointerEvents=1;" vertex="1" parent="nTpmGstvY4aD5aD-hLBk-308">
          <mxGeometry x="800" width="60" height="42" as="geometry">
            <mxRectangle width="60" height="42" as="alternateBounds" />
          </mxGeometry>
        </mxCell>
        <mxCell id="nTpmGstvY4aD5aD-hLBk-316" value="" style="shape=tableRow;horizontal=0;startSize=0;swimlaneHead=0;swimlaneBody=0;strokeColor=inherit;top=0;left=0;bottom=0;right=0;collapsible=0;dropTarget=0;fillColor=none;points=[[0,0.5],[1,0.5]];portConstraint=eastwest;" vertex="1" parent="nTpmGstvY4aD5aD-hLBk-259">
          <mxGeometry y="292" width="860" height="41" as="geometry" />
        </mxCell>
        <mxCell id="nTpmGstvY4aD5aD-hLBk-317" value="" style="shape=partialRectangle;html=1;whiteSpace=wrap;connectable=0;strokeColor=inherit;overflow=hidden;fillColor=none;top=0;left=0;bottom=0;right=0;pointerEvents=1;" vertex="1" parent="nTpmGstvY4aD5aD-hLBk-316">
          <mxGeometry width="51" height="41" as="geometry">
            <mxRectangle width="51" height="41" as="alternateBounds" />
          </mxGeometry>
        </mxCell>
        <mxCell id="nTpmGstvY4aD5aD-hLBk-318" value="" style="shape=partialRectangle;html=1;whiteSpace=wrap;connectable=0;strokeColor=inherit;overflow=hidden;fillColor=none;top=0;left=0;bottom=0;right=0;pointerEvents=1;" vertex="1" parent="nTpmGstvY4aD5aD-hLBk-316">
          <mxGeometry x="51" width="139" height="41" as="geometry">
            <mxRectangle width="139" height="41" as="alternateBounds" />
          </mxGeometry>
        </mxCell>
        <mxCell id="nTpmGstvY4aD5aD-hLBk-319" value="" style="shape=partialRectangle;html=1;whiteSpace=wrap;connectable=0;strokeColor=inherit;overflow=hidden;fillColor=none;top=0;left=0;bottom=0;right=0;pointerEvents=1;" vertex="1" parent="nTpmGstvY4aD5aD-hLBk-316">
          <mxGeometry x="190" width="430" height="41" as="geometry">
            <mxRectangle width="430" height="41" as="alternateBounds" />
          </mxGeometry>
        </mxCell>
        <mxCell id="nTpmGstvY4aD5aD-hLBk-320" value="" style="shape=partialRectangle;html=1;whiteSpace=wrap;connectable=0;strokeColor=inherit;overflow=hidden;fillColor=none;top=0;left=0;bottom=0;right=0;pointerEvents=1;" vertex="1" parent="nTpmGstvY4aD5aD-hLBk-316">
          <mxGeometry x="620" width="60" height="41" as="geometry">
            <mxRectangle width="60" height="41" as="alternateBounds" />
          </mxGeometry>
        </mxCell>
        <mxCell id="nTpmGstvY4aD5aD-hLBk-321" value="" style="shape=partialRectangle;html=1;whiteSpace=wrap;connectable=0;strokeColor=inherit;overflow=hidden;fillColor=none;top=0;left=0;bottom=0;right=0;pointerEvents=1;" vertex="1" parent="nTpmGstvY4aD5aD-hLBk-316">
          <mxGeometry x="680" width="70" height="41" as="geometry">
            <mxRectangle width="70" height="41" as="alternateBounds" />
          </mxGeometry>
        </mxCell>
        <mxCell id="nTpmGstvY4aD5aD-hLBk-322" value="" style="shape=partialRectangle;html=1;whiteSpace=wrap;connectable=0;strokeColor=inherit;overflow=hidden;fillColor=none;top=0;left=0;bottom=0;right=0;pointerEvents=1;" vertex="1" parent="nTpmGstvY4aD5aD-hLBk-316">
          <mxGeometry x="750" width="50" height="41" as="geometry">
            <mxRectangle width="50" height="41" as="alternateBounds" />
          </mxGeometry>
        </mxCell>
        <mxCell id="nTpmGstvY4aD5aD-hLBk-323" value="" style="shape=partialRectangle;html=1;whiteSpace=wrap;connectable=0;strokeColor=inherit;overflow=hidden;fillColor=none;top=0;left=0;bottom=0;right=0;pointerEvents=1;" vertex="1" parent="nTpmGstvY4aD5aD-hLBk-316">
          <mxGeometry x="800" width="60" height="41" as="geometry">
            <mxRectangle width="60" height="41" as="alternateBounds" />
          </mxGeometry>
        </mxCell>
        <mxCell id="nTpmGstvY4aD5aD-hLBk-324" value="" style="shape=tableRow;horizontal=0;startSize=0;swimlaneHead=0;swimlaneBody=0;strokeColor=inherit;top=0;left=0;bottom=0;right=0;collapsible=0;dropTarget=0;fillColor=none;points=[[0,0.5],[1,0.5]];portConstraint=eastwest;" vertex="1" parent="nTpmGstvY4aD5aD-hLBk-259">
          <mxGeometry y="333" width="860" height="42" as="geometry" />
        </mxCell>
        <mxCell id="nTpmGstvY4aD5aD-hLBk-325" value="" style="shape=partialRectangle;html=1;whiteSpace=wrap;connectable=0;strokeColor=inherit;overflow=hidden;fillColor=none;top=0;left=0;bottom=0;right=0;pointerEvents=1;" vertex="1" parent="nTpmGstvY4aD5aD-hLBk-324">
          <mxGeometry width="51" height="42" as="geometry">
            <mxRectangle width="51" height="42" as="alternateBounds" />
          </mxGeometry>
        </mxCell>
        <mxCell id="nTpmGstvY4aD5aD-hLBk-326" value="" style="shape=partialRectangle;html=1;whiteSpace=wrap;connectable=0;strokeColor=inherit;overflow=hidden;fillColor=none;top=0;left=0;bottom=0;right=0;pointerEvents=1;" vertex="1" parent="nTpmGstvY4aD5aD-hLBk-324">
          <mxGeometry x="51" width="139" height="42" as="geometry">
            <mxRectangle width="139" height="42" as="alternateBounds" />
          </mxGeometry>
        </mxCell>
        <mxCell id="nTpmGstvY4aD5aD-hLBk-327" value="" style="shape=partialRectangle;html=1;whiteSpace=wrap;connectable=0;strokeColor=inherit;overflow=hidden;fillColor=none;top=0;left=0;bottom=0;right=0;pointerEvents=1;" vertex="1" parent="nTpmGstvY4aD5aD-hLBk-324">
          <mxGeometry x="190" width="430" height="42" as="geometry">
            <mxRectangle width="430" height="42" as="alternateBounds" />
          </mxGeometry>
        </mxCell>
        <mxCell id="nTpmGstvY4aD5aD-hLBk-328" value="" style="shape=partialRectangle;html=1;whiteSpace=wrap;connectable=0;strokeColor=inherit;overflow=hidden;fillColor=none;top=0;left=0;bottom=0;right=0;pointerEvents=1;" vertex="1" parent="nTpmGstvY4aD5aD-hLBk-324">
          <mxGeometry x="620" width="60" height="42" as="geometry">
            <mxRectangle width="60" height="42" as="alternateBounds" />
          </mxGeometry>
        </mxCell>
        <mxCell id="nTpmGstvY4aD5aD-hLBk-329" value="" style="shape=partialRectangle;html=1;whiteSpace=wrap;connectable=0;strokeColor=inherit;overflow=hidden;fillColor=none;top=0;left=0;bottom=0;right=0;pointerEvents=1;" vertex="1" parent="nTpmGstvY4aD5aD-hLBk-324">
          <mxGeometry x="680" width="70" height="42" as="geometry">
            <mxRectangle width="70" height="42" as="alternateBounds" />
          </mxGeometry>
        </mxCell>
        <mxCell id="nTpmGstvY4aD5aD-hLBk-330" value="" style="shape=partialRectangle;html=1;whiteSpace=wrap;connectable=0;strokeColor=inherit;overflow=hidden;fillColor=none;top=0;left=0;bottom=0;right=0;pointerEvents=1;" vertex="1" parent="nTpmGstvY4aD5aD-hLBk-324">
          <mxGeometry x="750" width="50" height="42" as="geometry">
            <mxRectangle width="50" height="42" as="alternateBounds" />
          </mxGeometry>
        </mxCell>
        <mxCell id="nTpmGstvY4aD5aD-hLBk-331" value="" style="shape=partialRectangle;html=1;whiteSpace=wrap;connectable=0;strokeColor=inherit;overflow=hidden;fillColor=none;top=0;left=0;bottom=0;right=0;pointerEvents=1;" vertex="1" parent="nTpmGstvY4aD5aD-hLBk-324">
          <mxGeometry x="800" width="60" height="42" as="geometry">
            <mxRectangle width="60" height="42" as="alternateBounds" />
          </mxGeometry>
        </mxCell>
        <mxCell id="nTpmGstvY4aD5aD-hLBk-332" value="" style="shape=tableRow;horizontal=0;startSize=0;swimlaneHead=0;swimlaneBody=0;strokeColor=inherit;top=0;left=0;bottom=0;right=0;collapsible=0;dropTarget=0;fillColor=none;points=[[0,0.5],[1,0.5]];portConstraint=eastwest;" vertex="1" parent="nTpmGstvY4aD5aD-hLBk-259">
          <mxGeometry y="375" width="860" height="42" as="geometry" />
        </mxCell>
        <mxCell id="nTpmGstvY4aD5aD-hLBk-333" value="" style="shape=partialRectangle;html=1;whiteSpace=wrap;connectable=0;strokeColor=inherit;overflow=hidden;fillColor=none;top=0;left=0;bottom=0;right=0;pointerEvents=1;" vertex="1" parent="nTpmGstvY4aD5aD-hLBk-332">
          <mxGeometry width="51" height="42" as="geometry">
            <mxRectangle width="51" height="42" as="alternateBounds" />
          </mxGeometry>
        </mxCell>
        <mxCell id="nTpmGstvY4aD5aD-hLBk-334" value="" style="shape=partialRectangle;html=1;whiteSpace=wrap;connectable=0;strokeColor=inherit;overflow=hidden;fillColor=none;top=0;left=0;bottom=0;right=0;pointerEvents=1;" vertex="1" parent="nTpmGstvY4aD5aD-hLBk-332">
          <mxGeometry x="51" width="139" height="42" as="geometry">
            <mxRectangle width="139" height="42" as="alternateBounds" />
          </mxGeometry>
        </mxCell>
        <mxCell id="nTpmGstvY4aD5aD-hLBk-335" value="" style="shape=partialRectangle;html=1;whiteSpace=wrap;connectable=0;strokeColor=inherit;overflow=hidden;fillColor=none;top=0;left=0;bottom=0;right=0;pointerEvents=1;" vertex="1" parent="nTpmGstvY4aD5aD-hLBk-332">
          <mxGeometry x="190" width="430" height="42" as="geometry">
            <mxRectangle width="430" height="42" as="alternateBounds" />
          </mxGeometry>
        </mxCell>
        <mxCell id="nTpmGstvY4aD5aD-hLBk-336" value="" style="shape=partialRectangle;html=1;whiteSpace=wrap;connectable=0;strokeColor=inherit;overflow=hidden;fillColor=none;top=0;left=0;bottom=0;right=0;pointerEvents=1;" vertex="1" parent="nTpmGstvY4aD5aD-hLBk-332">
          <mxGeometry x="620" width="60" height="42" as="geometry">
            <mxRectangle width="60" height="42" as="alternateBounds" />
          </mxGeometry>
        </mxCell>
        <mxCell id="nTpmGstvY4aD5aD-hLBk-337" value="" style="shape=partialRectangle;html=1;whiteSpace=wrap;connectable=0;strokeColor=inherit;overflow=hidden;fillColor=none;top=0;left=0;bottom=0;right=0;pointerEvents=1;" vertex="1" parent="nTpmGstvY4aD5aD-hLBk-332">
          <mxGeometry x="680" width="70" height="42" as="geometry">
            <mxRectangle width="70" height="42" as="alternateBounds" />
          </mxGeometry>
        </mxCell>
        <mxCell id="nTpmGstvY4aD5aD-hLBk-338" value="" style="shape=partialRectangle;html=1;whiteSpace=wrap;connectable=0;strokeColor=inherit;overflow=hidden;fillColor=none;top=0;left=0;bottom=0;right=0;pointerEvents=1;" vertex="1" parent="nTpmGstvY4aD5aD-hLBk-332">
          <mxGeometry x="750" width="50" height="42" as="geometry">
            <mxRectangle width="50" height="42" as="alternateBounds" />
          </mxGeometry>
        </mxCell>
        <mxCell id="nTpmGstvY4aD5aD-hLBk-339" value="" style="shape=partialRectangle;html=1;whiteSpace=wrap;connectable=0;strokeColor=inherit;overflow=hidden;fillColor=none;top=0;left=0;bottom=0;right=0;pointerEvents=1;" vertex="1" parent="nTpmGstvY4aD5aD-hLBk-332">
          <mxGeometry x="800" width="60" height="42" as="geometry">
            <mxRectangle width="60" height="42" as="alternateBounds" />
          </mxGeometry>
        </mxCell>
        <mxCell id="nTpmGstvY4aD5aD-hLBk-340" value="" style="shape=tableRow;horizontal=0;startSize=0;swimlaneHead=0;swimlaneBody=0;strokeColor=inherit;top=0;left=0;bottom=0;right=0;collapsible=0;dropTarget=0;fillColor=none;points=[[0,0.5],[1,0.5]];portConstraint=eastwest;" vertex="1" parent="nTpmGstvY4aD5aD-hLBk-259">
          <mxGeometry y="417" width="860" height="41" as="geometry" />
        </mxCell>
        <mxCell id="nTpmGstvY4aD5aD-hLBk-341" value="" style="shape=partialRectangle;html=1;whiteSpace=wrap;connectable=0;strokeColor=inherit;overflow=hidden;fillColor=none;top=0;left=0;bottom=0;right=0;pointerEvents=1;" vertex="1" parent="nTpmGstvY4aD5aD-hLBk-340">
          <mxGeometry width="51" height="41" as="geometry">
            <mxRectangle width="51" height="41" as="alternateBounds" />
          </mxGeometry>
        </mxCell>
        <mxCell id="nTpmGstvY4aD5aD-hLBk-342" value="" style="shape=partialRectangle;html=1;whiteSpace=wrap;connectable=0;strokeColor=inherit;overflow=hidden;fillColor=none;top=0;left=0;bottom=0;right=0;pointerEvents=1;" vertex="1" parent="nTpmGstvY4aD5aD-hLBk-340">
          <mxGeometry x="51" width="139" height="41" as="geometry">
            <mxRectangle width="139" height="41" as="alternateBounds" />
          </mxGeometry>
        </mxCell>
        <mxCell id="nTpmGstvY4aD5aD-hLBk-343" value="" style="shape=partialRectangle;html=1;whiteSpace=wrap;connectable=0;strokeColor=inherit;overflow=hidden;fillColor=none;top=0;left=0;bottom=0;right=0;pointerEvents=1;" vertex="1" parent="nTpmGstvY4aD5aD-hLBk-340">
          <mxGeometry x="190" width="430" height="41" as="geometry">
            <mxRectangle width="430" height="41" as="alternateBounds" />
          </mxGeometry>
        </mxCell>
        <mxCell id="nTpmGstvY4aD5aD-hLBk-344" value="" style="shape=partialRectangle;html=1;whiteSpace=wrap;connectable=0;strokeColor=inherit;overflow=hidden;fillColor=none;top=0;left=0;bottom=0;right=0;pointerEvents=1;" vertex="1" parent="nTpmGstvY4aD5aD-hLBk-340">
          <mxGeometry x="620" width="60" height="41" as="geometry">
            <mxRectangle width="60" height="41" as="alternateBounds" />
          </mxGeometry>
        </mxCell>
        <mxCell id="nTpmGstvY4aD5aD-hLBk-345" value="" style="shape=partialRectangle;html=1;whiteSpace=wrap;connectable=0;strokeColor=inherit;overflow=hidden;fillColor=none;top=0;left=0;bottom=0;right=0;pointerEvents=1;" vertex="1" parent="nTpmGstvY4aD5aD-hLBk-340">
          <mxGeometry x="680" width="70" height="41" as="geometry">
            <mxRectangle width="70" height="41" as="alternateBounds" />
          </mxGeometry>
        </mxCell>
        <mxCell id="nTpmGstvY4aD5aD-hLBk-346" value="" style="shape=partialRectangle;html=1;whiteSpace=wrap;connectable=0;strokeColor=inherit;overflow=hidden;fillColor=none;top=0;left=0;bottom=0;right=0;pointerEvents=1;" vertex="1" parent="nTpmGstvY4aD5aD-hLBk-340">
          <mxGeometry x="750" width="50" height="41" as="geometry">
            <mxRectangle width="50" height="41" as="alternateBounds" />
          </mxGeometry>
        </mxCell>
        <mxCell id="nTpmGstvY4aD5aD-hLBk-347" value="" style="shape=partialRectangle;html=1;whiteSpace=wrap;connectable=0;strokeColor=inherit;overflow=hidden;fillColor=none;top=0;left=0;bottom=0;right=0;pointerEvents=1;" vertex="1" parent="nTpmGstvY4aD5aD-hLBk-340">
          <mxGeometry x="800" width="60" height="41" as="geometry">
            <mxRectangle width="60" height="41" as="alternateBounds" />
          </mxGeometry>
        </mxCell>
        <mxCell id="nTpmGstvY4aD5aD-hLBk-348" value="" style="shape=tableRow;horizontal=0;startSize=0;swimlaneHead=0;swimlaneBody=0;strokeColor=inherit;top=0;left=0;bottom=0;right=0;collapsible=0;dropTarget=0;fillColor=none;points=[[0,0.5],[1,0.5]];portConstraint=eastwest;" vertex="1" parent="nTpmGstvY4aD5aD-hLBk-259">
          <mxGeometry y="458" width="860" height="42" as="geometry" />
        </mxCell>
        <mxCell id="nTpmGstvY4aD5aD-hLBk-349" value="" style="shape=partialRectangle;html=1;whiteSpace=wrap;connectable=0;strokeColor=inherit;overflow=hidden;fillColor=none;top=0;left=0;bottom=0;right=0;pointerEvents=1;" vertex="1" parent="nTpmGstvY4aD5aD-hLBk-348">
          <mxGeometry width="51" height="42" as="geometry">
            <mxRectangle width="51" height="42" as="alternateBounds" />
          </mxGeometry>
        </mxCell>
        <mxCell id="nTpmGstvY4aD5aD-hLBk-350" value="" style="shape=partialRectangle;html=1;whiteSpace=wrap;connectable=0;strokeColor=inherit;overflow=hidden;fillColor=none;top=0;left=0;bottom=0;right=0;pointerEvents=1;" vertex="1" parent="nTpmGstvY4aD5aD-hLBk-348">
          <mxGeometry x="51" width="139" height="42" as="geometry">
            <mxRectangle width="139" height="42" as="alternateBounds" />
          </mxGeometry>
        </mxCell>
        <mxCell id="nTpmGstvY4aD5aD-hLBk-351" value="" style="shape=partialRectangle;html=1;whiteSpace=wrap;connectable=0;strokeColor=inherit;overflow=hidden;fillColor=none;top=0;left=0;bottom=0;right=0;pointerEvents=1;" vertex="1" parent="nTpmGstvY4aD5aD-hLBk-348">
          <mxGeometry x="190" width="430" height="42" as="geometry">
            <mxRectangle width="430" height="42" as="alternateBounds" />
          </mxGeometry>
        </mxCell>
        <mxCell id="nTpmGstvY4aD5aD-hLBk-352" value="" style="shape=partialRectangle;html=1;whiteSpace=wrap;connectable=0;strokeColor=inherit;overflow=hidden;fillColor=none;top=0;left=0;bottom=0;right=0;pointerEvents=1;" vertex="1" parent="nTpmGstvY4aD5aD-hLBk-348">
          <mxGeometry x="620" width="60" height="42" as="geometry">
            <mxRectangle width="60" height="42" as="alternateBounds" />
          </mxGeometry>
        </mxCell>
        <mxCell id="nTpmGstvY4aD5aD-hLBk-353" value="" style="shape=partialRectangle;html=1;whiteSpace=wrap;connectable=0;strokeColor=inherit;overflow=hidden;fillColor=none;top=0;left=0;bottom=0;right=0;pointerEvents=1;" vertex="1" parent="nTpmGstvY4aD5aD-hLBk-348">
          <mxGeometry x="680" width="70" height="42" as="geometry">
            <mxRectangle width="70" height="42" as="alternateBounds" />
          </mxGeometry>
        </mxCell>
        <mxCell id="nTpmGstvY4aD5aD-hLBk-354" value="" style="shape=partialRectangle;html=1;whiteSpace=wrap;connectable=0;strokeColor=inherit;overflow=hidden;fillColor=none;top=0;left=0;bottom=0;right=0;pointerEvents=1;" vertex="1" parent="nTpmGstvY4aD5aD-hLBk-348">
          <mxGeometry x="750" width="50" height="42" as="geometry">
            <mxRectangle width="50" height="42" as="alternateBounds" />
          </mxGeometry>
        </mxCell>
        <mxCell id="nTpmGstvY4aD5aD-hLBk-355" value="" style="shape=partialRectangle;html=1;whiteSpace=wrap;connectable=0;strokeColor=inherit;overflow=hidden;fillColor=none;top=0;left=0;bottom=0;right=0;pointerEvents=1;" vertex="1" parent="nTpmGstvY4aD5aD-hLBk-348">
          <mxGeometry x="800" width="60" height="42" as="geometry">
            <mxRectangle width="60" height="42" as="alternateBounds" />
          </mxGeometry>
        </mxCell>
        <mxCell id="nTpmGstvY4aD5aD-hLBk-425" value="" style="shape=table;startSize=0;container=1;collapsible=0;childLayout=tableLayout;sketch=1;curveFitting=1;jiggle=2;fillColor=#dae8fc;strokeColor=#6c8ebf;" vertex="1" parent="1">
          <mxGeometry x="100" y="920" width="860" height="240" as="geometry" />
        </mxCell>
        <mxCell id="nTpmGstvY4aD5aD-hLBk-426" value="" style="shape=tableRow;horizontal=0;startSize=0;swimlaneHead=0;swimlaneBody=0;strokeColor=inherit;top=0;left=0;bottom=0;right=0;collapsible=0;dropTarget=0;fillColor=none;points=[[0,0.5],[1,0.5]];portConstraint=eastwest;" vertex="1" parent="nTpmGstvY4aD5aD-hLBk-425">
          <mxGeometry width="860" height="40" as="geometry" />
        </mxCell>
        <mxCell id="nTpmGstvY4aD5aD-hLBk-427" value="4 - 10(1)" style="shape=partialRectangle;html=1;whiteSpace=wrap;connectable=0;strokeColor=inherit;overflow=hidden;fillColor=none;top=0;left=0;bottom=0;right=0;pointerEvents=1;" vertex="1" parent="nTpmGstvY4aD5aD-hLBk-426">
          <mxGeometry width="190" height="40" as="geometry">
            <mxRectangle width="190" height="40" as="alternateBounds" />
          </mxGeometry>
        </mxCell>
        <mxCell id="nTpmGstvY4aD5aD-hLBk-428" value="" style="shape=partialRectangle;html=1;whiteSpace=wrap;connectable=0;strokeColor=inherit;overflow=hidden;fillColor=none;top=0;left=0;bottom=0;right=0;pointerEvents=1;" vertex="1" parent="nTpmGstvY4aD5aD-hLBk-426">
          <mxGeometry x="190" width="80" height="40" as="geometry">
            <mxRectangle width="80" height="40" as="alternateBounds" />
          </mxGeometry>
        </mxCell>
        <mxCell id="nTpmGstvY4aD5aD-hLBk-429" value="" style="shape=partialRectangle;html=1;whiteSpace=wrap;connectable=0;strokeColor=inherit;overflow=hidden;fillColor=none;top=0;left=0;bottom=0;right=0;pointerEvents=1;" vertex="1" parent="nTpmGstvY4aD5aD-hLBk-426">
          <mxGeometry x="270" width="80" height="40" as="geometry">
            <mxRectangle width="80" height="40" as="alternateBounds" />
          </mxGeometry>
        </mxCell>
        <mxCell id="nTpmGstvY4aD5aD-hLBk-430" value="" style="shape=partialRectangle;html=1;whiteSpace=wrap;connectable=0;strokeColor=inherit;overflow=hidden;fillColor=none;top=0;left=0;bottom=0;right=0;pointerEvents=1;" vertex="1" parent="nTpmGstvY4aD5aD-hLBk-426">
          <mxGeometry x="350" width="80" height="40" as="geometry">
            <mxRectangle width="80" height="40" as="alternateBounds" />
          </mxGeometry>
        </mxCell>
        <mxCell id="nTpmGstvY4aD5aD-hLBk-431" value="" style="shape=partialRectangle;html=1;whiteSpace=wrap;connectable=0;strokeColor=inherit;overflow=hidden;fillColor=none;top=0;left=0;bottom=0;right=0;pointerEvents=1;" vertex="1" parent="nTpmGstvY4aD5aD-hLBk-426">
          <mxGeometry x="430" width="70" height="40" as="geometry">
            <mxRectangle width="70" height="40" as="alternateBounds" />
          </mxGeometry>
        </mxCell>
        <mxCell id="nTpmGstvY4aD5aD-hLBk-432" value="" style="shape=partialRectangle;html=1;whiteSpace=wrap;connectable=0;strokeColor=inherit;overflow=hidden;fillColor=none;top=0;left=0;bottom=0;right=0;pointerEvents=1;" vertex="1" parent="nTpmGstvY4aD5aD-hLBk-426">
          <mxGeometry x="500" width="70" height="40" as="geometry">
            <mxRectangle width="70" height="40" as="alternateBounds" />
          </mxGeometry>
        </mxCell>
        <mxCell id="nTpmGstvY4aD5aD-hLBk-433" value="" style="shape=partialRectangle;html=1;whiteSpace=wrap;connectable=0;strokeColor=inherit;overflow=hidden;fillColor=none;top=0;left=0;bottom=0;right=0;pointerEvents=1;" vertex="1" parent="nTpmGstvY4aD5aD-hLBk-426">
          <mxGeometry x="570" width="70" height="40" as="geometry">
            <mxRectangle width="70" height="40" as="alternateBounds" />
          </mxGeometry>
        </mxCell>
        <mxCell id="nTpmGstvY4aD5aD-hLBk-434" value="" style="shape=partialRectangle;html=1;whiteSpace=wrap;connectable=0;strokeColor=inherit;overflow=hidden;fillColor=none;top=0;left=0;bottom=0;right=0;pointerEvents=1;" vertex="1" parent="nTpmGstvY4aD5aD-hLBk-426">
          <mxGeometry x="640" width="50" height="40" as="geometry">
            <mxRectangle width="50" height="40" as="alternateBounds" />
          </mxGeometry>
        </mxCell>
        <mxCell id="nTpmGstvY4aD5aD-hLBk-435" value="" style="shape=partialRectangle;html=1;whiteSpace=wrap;connectable=0;strokeColor=inherit;overflow=hidden;fillColor=none;top=0;left=0;bottom=0;right=0;pointerEvents=1;" vertex="1" parent="nTpmGstvY4aD5aD-hLBk-426">
          <mxGeometry x="690" width="50" height="40" as="geometry">
            <mxRectangle width="50" height="40" as="alternateBounds" />
          </mxGeometry>
        </mxCell>
        <mxCell id="nTpmGstvY4aD5aD-hLBk-436" value="" style="shape=partialRectangle;html=1;whiteSpace=wrap;connectable=0;strokeColor=inherit;overflow=hidden;fillColor=none;top=0;left=0;bottom=0;right=0;pointerEvents=1;" vertex="1" parent="nTpmGstvY4aD5aD-hLBk-426">
          <mxGeometry x="740" width="50" height="40" as="geometry">
            <mxRectangle width="50" height="40" as="alternateBounds" />
          </mxGeometry>
        </mxCell>
        <mxCell id="nTpmGstvY4aD5aD-hLBk-437" value="" style="shape=partialRectangle;html=1;whiteSpace=wrap;connectable=0;strokeColor=inherit;overflow=hidden;fillColor=none;top=0;left=0;bottom=0;right=0;pointerEvents=1;" vertex="1" parent="nTpmGstvY4aD5aD-hLBk-426">
          <mxGeometry x="790" width="70" height="40" as="geometry">
            <mxRectangle width="70" height="40" as="alternateBounds" />
          </mxGeometry>
        </mxCell>
        <mxCell id="nTpmGstvY4aD5aD-hLBk-438" value="" style="shape=tableRow;horizontal=0;startSize=0;swimlaneHead=0;swimlaneBody=0;strokeColor=inherit;top=0;left=0;bottom=0;right=0;collapsible=0;dropTarget=0;fillColor=none;points=[[0,0.5],[1,0.5]];portConstraint=eastwest;" vertex="1" parent="nTpmGstvY4aD5aD-hLBk-425">
          <mxGeometry y="40" width="860" height="40" as="geometry" />
        </mxCell>
        <mxCell id="nTpmGstvY4aD5aD-hLBk-439" value="14 * 6" style="shape=partialRectangle;html=1;whiteSpace=wrap;connectable=0;strokeColor=inherit;overflow=hidden;fillColor=none;top=0;left=0;bottom=0;right=0;pointerEvents=1;" vertex="1" parent="nTpmGstvY4aD5aD-hLBk-438">
          <mxGeometry width="190" height="40" as="geometry">
            <mxRectangle width="190" height="40" as="alternateBounds" />
          </mxGeometry>
        </mxCell>
        <mxCell id="nTpmGstvY4aD5aD-hLBk-440" value="" style="shape=partialRectangle;html=1;whiteSpace=wrap;connectable=0;strokeColor=inherit;overflow=hidden;fillColor=none;top=0;left=0;bottom=0;right=0;pointerEvents=1;" vertex="1" parent="nTpmGstvY4aD5aD-hLBk-438">
          <mxGeometry x="190" width="80" height="40" as="geometry">
            <mxRectangle width="80" height="40" as="alternateBounds" />
          </mxGeometry>
        </mxCell>
        <mxCell id="nTpmGstvY4aD5aD-hLBk-441" value="" style="shape=partialRectangle;html=1;whiteSpace=wrap;connectable=0;strokeColor=inherit;overflow=hidden;fillColor=none;top=0;left=0;bottom=0;right=0;pointerEvents=1;" vertex="1" parent="nTpmGstvY4aD5aD-hLBk-438">
          <mxGeometry x="270" width="80" height="40" as="geometry">
            <mxRectangle width="80" height="40" as="alternateBounds" />
          </mxGeometry>
        </mxCell>
        <mxCell id="nTpmGstvY4aD5aD-hLBk-442" value="" style="shape=partialRectangle;html=1;whiteSpace=wrap;connectable=0;strokeColor=inherit;overflow=hidden;fillColor=none;top=0;left=0;bottom=0;right=0;pointerEvents=1;" vertex="1" parent="nTpmGstvY4aD5aD-hLBk-438">
          <mxGeometry x="350" width="80" height="40" as="geometry">
            <mxRectangle width="80" height="40" as="alternateBounds" />
          </mxGeometry>
        </mxCell>
        <mxCell id="nTpmGstvY4aD5aD-hLBk-443" value="" style="shape=partialRectangle;html=1;whiteSpace=wrap;connectable=0;strokeColor=inherit;overflow=hidden;fillColor=none;top=0;left=0;bottom=0;right=0;pointerEvents=1;" vertex="1" parent="nTpmGstvY4aD5aD-hLBk-438">
          <mxGeometry x="430" width="70" height="40" as="geometry">
            <mxRectangle width="70" height="40" as="alternateBounds" />
          </mxGeometry>
        </mxCell>
        <mxCell id="nTpmGstvY4aD5aD-hLBk-444" value="" style="shape=partialRectangle;html=1;whiteSpace=wrap;connectable=0;strokeColor=inherit;overflow=hidden;fillColor=none;top=0;left=0;bottom=0;right=0;pointerEvents=1;" vertex="1" parent="nTpmGstvY4aD5aD-hLBk-438">
          <mxGeometry x="500" width="70" height="40" as="geometry">
            <mxRectangle width="70" height="40" as="alternateBounds" />
          </mxGeometry>
        </mxCell>
        <mxCell id="nTpmGstvY4aD5aD-hLBk-445" value="" style="shape=partialRectangle;html=1;whiteSpace=wrap;connectable=0;strokeColor=inherit;overflow=hidden;fillColor=none;top=0;left=0;bottom=0;right=0;pointerEvents=1;" vertex="1" parent="nTpmGstvY4aD5aD-hLBk-438">
          <mxGeometry x="570" width="70" height="40" as="geometry">
            <mxRectangle width="70" height="40" as="alternateBounds" />
          </mxGeometry>
        </mxCell>
        <mxCell id="nTpmGstvY4aD5aD-hLBk-446" value="" style="shape=partialRectangle;html=1;whiteSpace=wrap;connectable=0;strokeColor=inherit;overflow=hidden;fillColor=none;top=0;left=0;bottom=0;right=0;pointerEvents=1;" vertex="1" parent="nTpmGstvY4aD5aD-hLBk-438">
          <mxGeometry x="640" width="50" height="40" as="geometry">
            <mxRectangle width="50" height="40" as="alternateBounds" />
          </mxGeometry>
        </mxCell>
        <mxCell id="nTpmGstvY4aD5aD-hLBk-447" value="" style="shape=partialRectangle;html=1;whiteSpace=wrap;connectable=0;strokeColor=inherit;overflow=hidden;fillColor=none;top=0;left=0;bottom=0;right=0;pointerEvents=1;" vertex="1" parent="nTpmGstvY4aD5aD-hLBk-438">
          <mxGeometry x="690" width="50" height="40" as="geometry">
            <mxRectangle width="50" height="40" as="alternateBounds" />
          </mxGeometry>
        </mxCell>
        <mxCell id="nTpmGstvY4aD5aD-hLBk-448" value="" style="shape=partialRectangle;html=1;whiteSpace=wrap;connectable=0;strokeColor=inherit;overflow=hidden;fillColor=none;top=0;left=0;bottom=0;right=0;pointerEvents=1;" vertex="1" parent="nTpmGstvY4aD5aD-hLBk-438">
          <mxGeometry x="740" width="50" height="40" as="geometry">
            <mxRectangle width="50" height="40" as="alternateBounds" />
          </mxGeometry>
        </mxCell>
        <mxCell id="nTpmGstvY4aD5aD-hLBk-449" value="" style="shape=partialRectangle;html=1;whiteSpace=wrap;connectable=0;strokeColor=inherit;overflow=hidden;fillColor=none;top=0;left=0;bottom=0;right=0;pointerEvents=1;" vertex="1" parent="nTpmGstvY4aD5aD-hLBk-438">
          <mxGeometry x="790" width="70" height="40" as="geometry">
            <mxRectangle width="70" height="40" as="alternateBounds" />
          </mxGeometry>
        </mxCell>
        <mxCell id="nTpmGstvY4aD5aD-hLBk-450" value="" style="shape=tableRow;horizontal=0;startSize=0;swimlaneHead=0;swimlaneBody=0;strokeColor=inherit;top=0;left=0;bottom=0;right=0;collapsible=0;dropTarget=0;fillColor=none;points=[[0,0.5],[1,0.5]];portConstraint=eastwest;" vertex="1" parent="nTpmGstvY4aD5aD-hLBk-425">
          <mxGeometry y="80" width="860" height="40" as="geometry" />
        </mxCell>
        <mxCell id="nTpmGstvY4aD5aD-hLBk-451" value="" style="shape=partialRectangle;html=1;whiteSpace=wrap;connectable=0;strokeColor=inherit;overflow=hidden;fillColor=none;top=0;left=0;bottom=0;right=0;pointerEvents=1;" vertex="1" parent="nTpmGstvY4aD5aD-hLBk-450">
          <mxGeometry width="190" height="40" as="geometry">
            <mxRectangle width="190" height="40" as="alternateBounds" />
          </mxGeometry>
        </mxCell>
        <mxCell id="nTpmGstvY4aD5aD-hLBk-452" value="" style="shape=partialRectangle;html=1;whiteSpace=wrap;connectable=0;strokeColor=inherit;overflow=hidden;fillColor=none;top=0;left=0;bottom=0;right=0;pointerEvents=1;" vertex="1" parent="nTpmGstvY4aD5aD-hLBk-450">
          <mxGeometry x="190" width="80" height="40" as="geometry">
            <mxRectangle width="80" height="40" as="alternateBounds" />
          </mxGeometry>
        </mxCell>
        <mxCell id="nTpmGstvY4aD5aD-hLBk-453" value="" style="shape=partialRectangle;html=1;whiteSpace=wrap;connectable=0;strokeColor=inherit;overflow=hidden;fillColor=none;top=0;left=0;bottom=0;right=0;pointerEvents=1;" vertex="1" parent="nTpmGstvY4aD5aD-hLBk-450">
          <mxGeometry x="270" width="80" height="40" as="geometry">
            <mxRectangle width="80" height="40" as="alternateBounds" />
          </mxGeometry>
        </mxCell>
        <mxCell id="nTpmGstvY4aD5aD-hLBk-454" value="" style="shape=partialRectangle;html=1;whiteSpace=wrap;connectable=0;strokeColor=inherit;overflow=hidden;fillColor=none;top=0;left=0;bottom=0;right=0;pointerEvents=1;" vertex="1" parent="nTpmGstvY4aD5aD-hLBk-450">
          <mxGeometry x="350" width="80" height="40" as="geometry">
            <mxRectangle width="80" height="40" as="alternateBounds" />
          </mxGeometry>
        </mxCell>
        <mxCell id="nTpmGstvY4aD5aD-hLBk-455" value="" style="shape=partialRectangle;html=1;whiteSpace=wrap;connectable=0;strokeColor=#82b366;overflow=hidden;fillColor=#d5e8d4;top=0;left=0;bottom=0;right=0;pointerEvents=1;" vertex="1" parent="nTpmGstvY4aD5aD-hLBk-450">
          <mxGeometry x="430" width="70" height="40" as="geometry">
            <mxRectangle width="70" height="40" as="alternateBounds" />
          </mxGeometry>
        </mxCell>
        <mxCell id="nTpmGstvY4aD5aD-hLBk-456" value="" style="shape=partialRectangle;html=1;whiteSpace=wrap;connectable=0;strokeColor=inherit;overflow=hidden;fillColor=none;top=0;left=0;bottom=0;right=0;pointerEvents=1;" vertex="1" parent="nTpmGstvY4aD5aD-hLBk-450">
          <mxGeometry x="500" width="70" height="40" as="geometry">
            <mxRectangle width="70" height="40" as="alternateBounds" />
          </mxGeometry>
        </mxCell>
        <mxCell id="nTpmGstvY4aD5aD-hLBk-457" value="" style="shape=partialRectangle;html=1;whiteSpace=wrap;connectable=0;strokeColor=inherit;overflow=hidden;fillColor=none;top=0;left=0;bottom=0;right=0;pointerEvents=1;" vertex="1" parent="nTpmGstvY4aD5aD-hLBk-450">
          <mxGeometry x="570" width="70" height="40" as="geometry">
            <mxRectangle width="70" height="40" as="alternateBounds" />
          </mxGeometry>
        </mxCell>
        <mxCell id="nTpmGstvY4aD5aD-hLBk-458" value="" style="shape=partialRectangle;html=1;whiteSpace=wrap;connectable=0;strokeColor=inherit;overflow=hidden;fillColor=none;top=0;left=0;bottom=0;right=0;pointerEvents=1;" vertex="1" parent="nTpmGstvY4aD5aD-hLBk-450">
          <mxGeometry x="640" width="50" height="40" as="geometry">
            <mxRectangle width="50" height="40" as="alternateBounds" />
          </mxGeometry>
        </mxCell>
        <mxCell id="nTpmGstvY4aD5aD-hLBk-459" value="" style="shape=partialRectangle;html=1;whiteSpace=wrap;connectable=0;strokeColor=inherit;overflow=hidden;fillColor=none;top=0;left=0;bottom=0;right=0;pointerEvents=1;" vertex="1" parent="nTpmGstvY4aD5aD-hLBk-450">
          <mxGeometry x="690" width="50" height="40" as="geometry">
            <mxRectangle width="50" height="40" as="alternateBounds" />
          </mxGeometry>
        </mxCell>
        <mxCell id="nTpmGstvY4aD5aD-hLBk-460" value="" style="shape=partialRectangle;html=1;whiteSpace=wrap;connectable=0;strokeColor=inherit;overflow=hidden;fillColor=none;top=0;left=0;bottom=0;right=0;pointerEvents=1;" vertex="1" parent="nTpmGstvY4aD5aD-hLBk-450">
          <mxGeometry x="740" width="50" height="40" as="geometry">
            <mxRectangle width="50" height="40" as="alternateBounds" />
          </mxGeometry>
        </mxCell>
        <mxCell id="nTpmGstvY4aD5aD-hLBk-461" value="" style="shape=partialRectangle;html=1;whiteSpace=wrap;connectable=0;strokeColor=inherit;overflow=hidden;fillColor=none;top=0;left=0;bottom=0;right=0;pointerEvents=1;" vertex="1" parent="nTpmGstvY4aD5aD-hLBk-450">
          <mxGeometry x="790" width="70" height="40" as="geometry">
            <mxRectangle width="70" height="40" as="alternateBounds" />
          </mxGeometry>
        </mxCell>
        <mxCell id="nTpmGstvY4aD5aD-hLBk-462" value="" style="shape=tableRow;horizontal=0;startSize=0;swimlaneHead=0;swimlaneBody=0;strokeColor=inherit;top=0;left=0;bottom=0;right=0;collapsible=0;dropTarget=0;fillColor=none;points=[[0,0.5],[1,0.5]];portConstraint=eastwest;" vertex="1" parent="nTpmGstvY4aD5aD-hLBk-425">
          <mxGeometry y="120" width="860" height="40" as="geometry" />
        </mxCell>
        <mxCell id="nTpmGstvY4aD5aD-hLBk-463" value="" style="shape=partialRectangle;html=1;whiteSpace=wrap;connectable=0;strokeColor=inherit;overflow=hidden;fillColor=none;top=0;left=0;bottom=0;right=0;pointerEvents=1;" vertex="1" parent="nTpmGstvY4aD5aD-hLBk-462">
          <mxGeometry width="190" height="40" as="geometry">
            <mxRectangle width="190" height="40" as="alternateBounds" />
          </mxGeometry>
        </mxCell>
        <mxCell id="nTpmGstvY4aD5aD-hLBk-464" value="" style="shape=partialRectangle;html=1;whiteSpace=wrap;connectable=0;strokeColor=inherit;overflow=hidden;fillColor=none;top=0;left=0;bottom=0;right=0;pointerEvents=1;" vertex="1" parent="nTpmGstvY4aD5aD-hLBk-462">
          <mxGeometry x="190" width="80" height="40" as="geometry">
            <mxRectangle width="80" height="40" as="alternateBounds" />
          </mxGeometry>
        </mxCell>
        <mxCell id="nTpmGstvY4aD5aD-hLBk-465" value="" style="shape=partialRectangle;html=1;whiteSpace=wrap;connectable=0;strokeColor=inherit;overflow=hidden;fillColor=none;top=0;left=0;bottom=0;right=0;pointerEvents=1;" vertex="1" parent="nTpmGstvY4aD5aD-hLBk-462">
          <mxGeometry x="270" width="80" height="40" as="geometry">
            <mxRectangle width="80" height="40" as="alternateBounds" />
          </mxGeometry>
        </mxCell>
        <mxCell id="nTpmGstvY4aD5aD-hLBk-466" value="" style="shape=partialRectangle;html=1;whiteSpace=wrap;connectable=0;strokeColor=inherit;overflow=hidden;fillColor=none;top=0;left=0;bottom=0;right=0;pointerEvents=1;" vertex="1" parent="nTpmGstvY4aD5aD-hLBk-462">
          <mxGeometry x="350" width="80" height="40" as="geometry">
            <mxRectangle width="80" height="40" as="alternateBounds" />
          </mxGeometry>
        </mxCell>
        <mxCell id="nTpmGstvY4aD5aD-hLBk-467" value="" style="shape=partialRectangle;html=1;whiteSpace=wrap;connectable=0;strokeColor=inherit;overflow=hidden;fillColor=none;top=0;left=0;bottom=0;right=0;pointerEvents=1;" vertex="1" parent="nTpmGstvY4aD5aD-hLBk-462">
          <mxGeometry x="430" width="70" height="40" as="geometry">
            <mxRectangle width="70" height="40" as="alternateBounds" />
          </mxGeometry>
        </mxCell>
        <mxCell id="nTpmGstvY4aD5aD-hLBk-468" value="" style="shape=partialRectangle;html=1;whiteSpace=wrap;connectable=0;strokeColor=inherit;overflow=hidden;fillColor=none;top=0;left=0;bottom=0;right=0;pointerEvents=1;" vertex="1" parent="nTpmGstvY4aD5aD-hLBk-462">
          <mxGeometry x="500" width="70" height="40" as="geometry">
            <mxRectangle width="70" height="40" as="alternateBounds" />
          </mxGeometry>
        </mxCell>
        <mxCell id="nTpmGstvY4aD5aD-hLBk-469" value="" style="shape=partialRectangle;html=1;whiteSpace=wrap;connectable=0;strokeColor=inherit;overflow=hidden;fillColor=none;top=0;left=0;bottom=0;right=0;pointerEvents=1;" vertex="1" parent="nTpmGstvY4aD5aD-hLBk-462">
          <mxGeometry x="570" width="70" height="40" as="geometry">
            <mxRectangle width="70" height="40" as="alternateBounds" />
          </mxGeometry>
        </mxCell>
        <mxCell id="nTpmGstvY4aD5aD-hLBk-470" value="" style="shape=partialRectangle;html=1;whiteSpace=wrap;connectable=0;strokeColor=inherit;overflow=hidden;fillColor=none;top=0;left=0;bottom=0;right=0;pointerEvents=1;" vertex="1" parent="nTpmGstvY4aD5aD-hLBk-462">
          <mxGeometry x="640" width="50" height="40" as="geometry">
            <mxRectangle width="50" height="40" as="alternateBounds" />
          </mxGeometry>
        </mxCell>
        <mxCell id="nTpmGstvY4aD5aD-hLBk-471" value="" style="shape=partialRectangle;html=1;whiteSpace=wrap;connectable=0;strokeColor=inherit;overflow=hidden;fillColor=none;top=0;left=0;bottom=0;right=0;pointerEvents=1;" vertex="1" parent="nTpmGstvY4aD5aD-hLBk-462">
          <mxGeometry x="690" width="50" height="40" as="geometry">
            <mxRectangle width="50" height="40" as="alternateBounds" />
          </mxGeometry>
        </mxCell>
        <mxCell id="nTpmGstvY4aD5aD-hLBk-472" value="" style="shape=partialRectangle;html=1;whiteSpace=wrap;connectable=0;strokeColor=inherit;overflow=hidden;fillColor=none;top=0;left=0;bottom=0;right=0;pointerEvents=1;" vertex="1" parent="nTpmGstvY4aD5aD-hLBk-462">
          <mxGeometry x="740" width="50" height="40" as="geometry">
            <mxRectangle width="50" height="40" as="alternateBounds" />
          </mxGeometry>
        </mxCell>
        <mxCell id="nTpmGstvY4aD5aD-hLBk-473" value="" style="shape=partialRectangle;html=1;whiteSpace=wrap;connectable=0;strokeColor=inherit;overflow=hidden;fillColor=none;top=0;left=0;bottom=0;right=0;pointerEvents=1;" vertex="1" parent="nTpmGstvY4aD5aD-hLBk-462">
          <mxGeometry x="790" width="70" height="40" as="geometry">
            <mxRectangle width="70" height="40" as="alternateBounds" />
          </mxGeometry>
        </mxCell>
        <mxCell id="nTpmGstvY4aD5aD-hLBk-474" value="" style="shape=tableRow;horizontal=0;startSize=0;swimlaneHead=0;swimlaneBody=0;strokeColor=inherit;top=0;left=0;bottom=0;right=0;collapsible=0;dropTarget=0;fillColor=none;points=[[0,0.5],[1,0.5]];portConstraint=eastwest;" vertex="1" parent="nTpmGstvY4aD5aD-hLBk-425">
          <mxGeometry y="160" width="860" height="40" as="geometry" />
        </mxCell>
        <mxCell id="nTpmGstvY4aD5aD-hLBk-475" value="" style="shape=partialRectangle;html=1;whiteSpace=wrap;connectable=0;strokeColor=inherit;overflow=hidden;fillColor=none;top=0;left=0;bottom=0;right=0;pointerEvents=1;" vertex="1" parent="nTpmGstvY4aD5aD-hLBk-474">
          <mxGeometry width="190" height="40" as="geometry">
            <mxRectangle width="190" height="40" as="alternateBounds" />
          </mxGeometry>
        </mxCell>
        <mxCell id="nTpmGstvY4aD5aD-hLBk-476" value="" style="shape=partialRectangle;html=1;whiteSpace=wrap;connectable=0;strokeColor=inherit;overflow=hidden;fillColor=none;top=0;left=0;bottom=0;right=0;pointerEvents=1;" vertex="1" parent="nTpmGstvY4aD5aD-hLBk-474">
          <mxGeometry x="190" width="80" height="40" as="geometry">
            <mxRectangle width="80" height="40" as="alternateBounds" />
          </mxGeometry>
        </mxCell>
        <mxCell id="nTpmGstvY4aD5aD-hLBk-477" value="" style="shape=partialRectangle;html=1;whiteSpace=wrap;connectable=0;strokeColor=inherit;overflow=hidden;fillColor=none;top=0;left=0;bottom=0;right=0;pointerEvents=1;" vertex="1" parent="nTpmGstvY4aD5aD-hLBk-474">
          <mxGeometry x="270" width="80" height="40" as="geometry">
            <mxRectangle width="80" height="40" as="alternateBounds" />
          </mxGeometry>
        </mxCell>
        <mxCell id="nTpmGstvY4aD5aD-hLBk-478" value="" style="shape=partialRectangle;html=1;whiteSpace=wrap;connectable=0;strokeColor=inherit;overflow=hidden;fillColor=none;top=0;left=0;bottom=0;right=0;pointerEvents=1;" vertex="1" parent="nTpmGstvY4aD5aD-hLBk-474">
          <mxGeometry x="350" width="80" height="40" as="geometry">
            <mxRectangle width="80" height="40" as="alternateBounds" />
          </mxGeometry>
        </mxCell>
        <mxCell id="nTpmGstvY4aD5aD-hLBk-479" value="" style="shape=partialRectangle;html=1;whiteSpace=wrap;connectable=0;strokeColor=inherit;overflow=hidden;fillColor=none;top=0;left=0;bottom=0;right=0;pointerEvents=1;" vertex="1" parent="nTpmGstvY4aD5aD-hLBk-474">
          <mxGeometry x="430" width="70" height="40" as="geometry">
            <mxRectangle width="70" height="40" as="alternateBounds" />
          </mxGeometry>
        </mxCell>
        <mxCell id="nTpmGstvY4aD5aD-hLBk-480" value="" style="shape=partialRectangle;html=1;whiteSpace=wrap;connectable=0;strokeColor=inherit;overflow=hidden;fillColor=none;top=0;left=0;bottom=0;right=0;pointerEvents=1;" vertex="1" parent="nTpmGstvY4aD5aD-hLBk-474">
          <mxGeometry x="500" width="70" height="40" as="geometry">
            <mxRectangle width="70" height="40" as="alternateBounds" />
          </mxGeometry>
        </mxCell>
        <mxCell id="nTpmGstvY4aD5aD-hLBk-481" value="" style="shape=partialRectangle;html=1;whiteSpace=wrap;connectable=0;strokeColor=inherit;overflow=hidden;fillColor=none;top=0;left=0;bottom=0;right=0;pointerEvents=1;" vertex="1" parent="nTpmGstvY4aD5aD-hLBk-474">
          <mxGeometry x="570" width="70" height="40" as="geometry">
            <mxRectangle width="70" height="40" as="alternateBounds" />
          </mxGeometry>
        </mxCell>
        <mxCell id="nTpmGstvY4aD5aD-hLBk-482" value="" style="shape=partialRectangle;html=1;whiteSpace=wrap;connectable=0;strokeColor=inherit;overflow=hidden;fillColor=none;top=0;left=0;bottom=0;right=0;pointerEvents=1;" vertex="1" parent="nTpmGstvY4aD5aD-hLBk-474">
          <mxGeometry x="640" width="50" height="40" as="geometry">
            <mxRectangle width="50" height="40" as="alternateBounds" />
          </mxGeometry>
        </mxCell>
        <mxCell id="nTpmGstvY4aD5aD-hLBk-483" value="" style="shape=partialRectangle;html=1;whiteSpace=wrap;connectable=0;strokeColor=inherit;overflow=hidden;fillColor=none;top=0;left=0;bottom=0;right=0;pointerEvents=1;" vertex="1" parent="nTpmGstvY4aD5aD-hLBk-474">
          <mxGeometry x="690" width="50" height="40" as="geometry">
            <mxRectangle width="50" height="40" as="alternateBounds" />
          </mxGeometry>
        </mxCell>
        <mxCell id="nTpmGstvY4aD5aD-hLBk-484" value="" style="shape=partialRectangle;html=1;whiteSpace=wrap;connectable=0;strokeColor=inherit;overflow=hidden;fillColor=none;top=0;left=0;bottom=0;right=0;pointerEvents=1;" vertex="1" parent="nTpmGstvY4aD5aD-hLBk-474">
          <mxGeometry x="740" width="50" height="40" as="geometry">
            <mxRectangle width="50" height="40" as="alternateBounds" />
          </mxGeometry>
        </mxCell>
        <mxCell id="nTpmGstvY4aD5aD-hLBk-485" value="" style="shape=partialRectangle;html=1;whiteSpace=wrap;connectable=0;strokeColor=inherit;overflow=hidden;fillColor=none;top=0;left=0;bottom=0;right=0;pointerEvents=1;" vertex="1" parent="nTpmGstvY4aD5aD-hLBk-474">
          <mxGeometry x="790" width="70" height="40" as="geometry">
            <mxRectangle width="70" height="40" as="alternateBounds" />
          </mxGeometry>
        </mxCell>
        <mxCell id="nTpmGstvY4aD5aD-hLBk-486" value="" style="shape=tableRow;horizontal=0;startSize=0;swimlaneHead=0;swimlaneBody=0;strokeColor=inherit;top=0;left=0;bottom=0;right=0;collapsible=0;dropTarget=0;fillColor=none;points=[[0,0.5],[1,0.5]];portConstraint=eastwest;" vertex="1" parent="nTpmGstvY4aD5aD-hLBk-425">
          <mxGeometry y="200" width="860" height="40" as="geometry" />
        </mxCell>
        <mxCell id="nTpmGstvY4aD5aD-hLBk-487" value="" style="shape=partialRectangle;html=1;whiteSpace=wrap;connectable=0;strokeColor=inherit;overflow=hidden;fillColor=none;top=0;left=0;bottom=0;right=0;pointerEvents=1;" vertex="1" parent="nTpmGstvY4aD5aD-hLBk-486">
          <mxGeometry width="190" height="40" as="geometry">
            <mxRectangle width="190" height="40" as="alternateBounds" />
          </mxGeometry>
        </mxCell>
        <mxCell id="nTpmGstvY4aD5aD-hLBk-488" value="" style="shape=partialRectangle;html=1;whiteSpace=wrap;connectable=0;strokeColor=inherit;overflow=hidden;fillColor=none;top=0;left=0;bottom=0;right=0;pointerEvents=1;" vertex="1" parent="nTpmGstvY4aD5aD-hLBk-486">
          <mxGeometry x="190" width="80" height="40" as="geometry">
            <mxRectangle width="80" height="40" as="alternateBounds" />
          </mxGeometry>
        </mxCell>
        <mxCell id="nTpmGstvY4aD5aD-hLBk-489" value="" style="shape=partialRectangle;html=1;whiteSpace=wrap;connectable=0;strokeColor=inherit;overflow=hidden;fillColor=none;top=0;left=0;bottom=0;right=0;pointerEvents=1;" vertex="1" parent="nTpmGstvY4aD5aD-hLBk-486">
          <mxGeometry x="270" width="80" height="40" as="geometry">
            <mxRectangle width="80" height="40" as="alternateBounds" />
          </mxGeometry>
        </mxCell>
        <mxCell id="nTpmGstvY4aD5aD-hLBk-490" value="" style="shape=partialRectangle;html=1;whiteSpace=wrap;connectable=0;strokeColor=inherit;overflow=hidden;fillColor=none;top=0;left=0;bottom=0;right=0;pointerEvents=1;" vertex="1" parent="nTpmGstvY4aD5aD-hLBk-486">
          <mxGeometry x="350" width="80" height="40" as="geometry">
            <mxRectangle width="80" height="40" as="alternateBounds" />
          </mxGeometry>
        </mxCell>
        <mxCell id="nTpmGstvY4aD5aD-hLBk-491" value="" style="shape=partialRectangle;html=1;whiteSpace=wrap;connectable=0;strokeColor=inherit;overflow=hidden;fillColor=none;top=0;left=0;bottom=0;right=0;pointerEvents=1;" vertex="1" parent="nTpmGstvY4aD5aD-hLBk-486">
          <mxGeometry x="430" width="70" height="40" as="geometry">
            <mxRectangle width="70" height="40" as="alternateBounds" />
          </mxGeometry>
        </mxCell>
        <mxCell id="nTpmGstvY4aD5aD-hLBk-492" value="" style="shape=partialRectangle;html=1;whiteSpace=wrap;connectable=0;strokeColor=inherit;overflow=hidden;fillColor=none;top=0;left=0;bottom=0;right=0;pointerEvents=1;" vertex="1" parent="nTpmGstvY4aD5aD-hLBk-486">
          <mxGeometry x="500" width="70" height="40" as="geometry">
            <mxRectangle width="70" height="40" as="alternateBounds" />
          </mxGeometry>
        </mxCell>
        <mxCell id="nTpmGstvY4aD5aD-hLBk-493" value="" style="shape=partialRectangle;html=1;whiteSpace=wrap;connectable=0;strokeColor=inherit;overflow=hidden;fillColor=none;top=0;left=0;bottom=0;right=0;pointerEvents=1;" vertex="1" parent="nTpmGstvY4aD5aD-hLBk-486">
          <mxGeometry x="570" width="70" height="40" as="geometry">
            <mxRectangle width="70" height="40" as="alternateBounds" />
          </mxGeometry>
        </mxCell>
        <mxCell id="nTpmGstvY4aD5aD-hLBk-494" value="" style="shape=partialRectangle;html=1;whiteSpace=wrap;connectable=0;strokeColor=inherit;overflow=hidden;fillColor=none;top=0;left=0;bottom=0;right=0;pointerEvents=1;" vertex="1" parent="nTpmGstvY4aD5aD-hLBk-486">
          <mxGeometry x="640" width="50" height="40" as="geometry">
            <mxRectangle width="50" height="40" as="alternateBounds" />
          </mxGeometry>
        </mxCell>
        <mxCell id="nTpmGstvY4aD5aD-hLBk-495" value="" style="shape=partialRectangle;html=1;whiteSpace=wrap;connectable=0;strokeColor=inherit;overflow=hidden;fillColor=none;top=0;left=0;bottom=0;right=0;pointerEvents=1;" vertex="1" parent="nTpmGstvY4aD5aD-hLBk-486">
          <mxGeometry x="690" width="50" height="40" as="geometry">
            <mxRectangle width="50" height="40" as="alternateBounds" />
          </mxGeometry>
        </mxCell>
        <mxCell id="nTpmGstvY4aD5aD-hLBk-496" value="" style="shape=partialRectangle;html=1;whiteSpace=wrap;connectable=0;strokeColor=inherit;overflow=hidden;fillColor=none;top=0;left=0;bottom=0;right=0;pointerEvents=1;" vertex="1" parent="nTpmGstvY4aD5aD-hLBk-486">
          <mxGeometry x="740" width="50" height="40" as="geometry">
            <mxRectangle width="50" height="40" as="alternateBounds" />
          </mxGeometry>
        </mxCell>
        <mxCell id="nTpmGstvY4aD5aD-hLBk-497" value="" style="shape=partialRectangle;html=1;whiteSpace=wrap;connectable=0;strokeColor=inherit;overflow=hidden;fillColor=none;top=0;left=0;bottom=0;right=0;pointerEvents=1;" vertex="1" parent="nTpmGstvY4aD5aD-hLBk-486">
          <mxGeometry x="790" width="70" height="40" as="geometry">
            <mxRectangle width="70" height="40" as="alternateBounds" />
          </mxGeometry>
        </mxCell>
        <mxCell id="nTpmGstvY4aD5aD-hLBk-498" value="" style="rounded=0;whiteSpace=wrap;html=1;fillColor=#d5e8d4;strokeColor=#82b366;fillStyle=zigzag-line;" vertex="1" parent="1">
          <mxGeometry x="100" y="1180" width="860" height="210" as="geometry" />
        </mxCell>
        <mxCell id="nTpmGstvY4aD5aD-hLBk-499" value="widht 100% flex - colum flex 1" style="rounded=1;whiteSpace=wrap;html=1;fillColor=#dae8fc;strokeColor=#6c8ebf;" vertex="1" parent="1">
          <mxGeometry x="110" y="1190" width="840" height="90" as="geometry" />
        </mxCell>
        <mxCell id="nTpmGstvY4aD5aD-hLBk-500" value="width flex colum flex 1" style="rounded=1;whiteSpace=wrap;html=1;fillColor=#f5f5f5;fontColor=#333333;strokeColor=#666666;" vertex="1" parent="1">
          <mxGeometry x="112.5" y="1290" width="835" height="90" as="geometry" />
        </mxCell>
      </root>
    </mxGraphModel>
  </diagram>
</mxfile>
